<svg xmlns="http://www.w3.org/2000/svg" xmlns:xlink="http://www.w3.org/1999/xlink" viewBox="0 0 120 60"><defs><radialGradient id="radial-gradient" cx="9.03" cy="46.16" r="45.17" gradientTransform="translate(-0.58 -0.17) scale(1 1.01)" gradientUnits="userSpaceOnUse"><stop offset="0" stop-color="#760046"/><stop offset="0.44" stop-color="#380021"/><stop offset="0.77" stop-color="#0f0009"/><stop offset="0.94"/></radialGradient><radialGradient id="radial-gradient-2" cx="119.04" cy="14.81" r="38.29" gradientTransform="translate(-0.58 -0.17) scale(1 1.01)" gradientUnits="userSpaceOnUse"><stop offset="0" stop-color="#351a76"/><stop offset="0.44" stop-color="#190c38"/><stop offset="0.77" stop-color="#07030f"/><stop offset="0.94"/></radialGradient><radialGradient id="radial-gradient-3" cx="121.12" cy="0.99" r="38.29" gradientTransform="translate(-0.58 -0.17) scale(1 1.01)" gradientUnits="userSpaceOnUse"><stop offset="0" stop-color="#761c18"/><stop offset="0.44" stop-color="#380d0b"/><stop offset="0.77" stop-color="#0f0403"/><stop offset="0.94"/></radialGradient><radialGradient id="radial-gradient-4" cx="59.76" cy="62.42" r="38.29" xlink:href="#radial-gradient-3"/><radialGradient id="radial-gradient-5" cx="58" cy="-0.99" r="38.28" gradientTransform="translate(-0.58 -0.17) scale(1 1.01)" gradientUnits="userSpaceOnUse"><stop offset="0" stop-color="#005a7f"/><stop offset="0.05" stop-color="#005476"/><stop offset="0.34" stop-color="#003043"/><stop offset="0.6" stop-color="#00161f"/><stop offset="0.81" stop-color="#000608"/><stop offset="0.94"/></radialGradient><linearGradient id="linear-gradient" x1="17.82" y1="100.81" x2="133.24" y2="54.49" gradientUnits="userSpaceOnUse"><stop offset="0" stop-color="#99a7af"/><stop offset="0.48" stop-color="#080809"/><stop offset="0.5"/><stop offset="0.68" stop-color="#40464a"/><stop offset="0.83" stop-color="#707b80"/><stop offset="0.94" stop-color="#8e9ba2"/><stop offset="1" stop-color="#99a7af"/></linearGradient><linearGradient id="linear-gradient-2" x1="0.98" y1="58.78" x2="116.05" y2="12.6" xlink:href="#linear-gradient"/><linearGradient id="linear-gradient-3" x1="0.15" y1="56.7" x2="115.63" y2="10.36" xlink:href="#linear-gradient"/><linearGradient id="linear-gradient-4" x1="-18.16" y1="10.87" x2="97.3" y2="-35.46" xlink:href="#linear-gradient"/><radialGradient id="radial-gradient-6" cx="60.91" cy="36.16" r="70.24" gradientTransform="translate(-0.58 -0.17) scale(1 1.01)" gradientUnits="userSpaceOnUse"><stop offset="0" stop-color="#666"/><stop offset="1"/></radialGradient><radialGradient id="radial-gradient-7" cx="60.91" cy="36.16" r="70.24" xlink:href="#radial-gradient-6"/><radialGradient id="radial-gradient-8" cx="60.95" cy="36.16" r="70.21" xlink:href="#radial-gradient-6"/><radialGradient id="radial-gradient-9" cx="80.1" cy="21.97" r="2.08" gradientTransform="translate(-0.58 -0.17) scale(1 1.01)" gradientUnits="userSpaceOnUse"><stop offset="0.15" stop-color="#fff"/><stop offset="0.15" stop-color="#f9f9f9"/><stop offset="0.18" stop-color="#c5c5c5"/><stop offset="0.22" stop-color="#969696"/><stop offset="0.25" stop-color="#6e6e6e"/><stop offset="0.29" stop-color="#4c4c4c"/><stop offset="0.32" stop-color="#303030"/><stop offset="0.36" stop-color="#1b1b1b"/><stop offset="0.41" stop-color="#0c0c0c"/><stop offset="0.46" stop-color="#030303"/><stop offset="0.54"/></radialGradient><radialGradient id="radial-gradient-10" cx="82.1" cy="14.12" r="2.08" xlink:href="#radial-gradient-9"/><radialGradient id="radial-gradient-11" cx="118.57" cy="55.6" r="2.08" xlink:href="#radial-gradient-9"/><radialGradient id="radial-gradient-12" cx="0.46" cy="8.06" r="2.08" xlink:href="#radial-gradient-9"/><radialGradient id="radial-gradient-13" cx="52.92" cy="54.3" r="2.08" xlink:href="#radial-gradient-9"/><radialGradient id="radial-gradient-14" cx="40.47" cy="55.17" r="2.08" xlink:href="#radial-gradient-9"/><radialGradient id="radial-gradient-15" cx="8.79" cy="15.76" r="2.08" xlink:href="#radial-gradient-9"/><radialGradient id="radial-gradient-16" cx="85.47" cy="18.14" r="2.08" xlink:href="#radial-gradient-9"/><radialGradient id="radial-gradient-17" cx="52.55" cy="45.82" r="2.08" xlink:href="#radial-gradient-9"/><radialGradient id="radial-gradient-18" cx="76.03" cy="32.97" r="2.08" xlink:href="#radial-gradient-9"/><radialGradient id="radial-gradient-19" cx="49.17" cy="42.71" r="2.08" xlink:href="#radial-gradient-9"/><radialGradient id="radial-gradient-20" cx="16.71" cy="22.97" r="2.08" xlink:href="#radial-gradient-9"/><radialGradient id="radial-gradient-21" cx="57.68" cy="22.02" r="2.08" xlink:href="#radial-gradient-9"/><radialGradient id="radial-gradient-22" cx="-1.08" cy="25.69" r="2.08" xlink:href="#radial-gradient-9"/><radialGradient id="radial-gradient-23" cx="74.11" cy="53.21" r="2.08" xlink:href="#radial-gradient-9"/><radialGradient id="radial-gradient-24" cx="48.33" cy="51.36" r="2.08" xlink:href="#radial-gradient-9"/><radialGradient id="radial-gradient-25" cx="92.26" cy="13.91" r="2.08" xlink:href="#radial-gradient-9"/><radialGradient id="radial-gradient-26" cx="51.03" cy="28.43" r="2.08" xlink:href="#radial-gradient-9"/><radialGradient id="radial-gradient-27" cx="31.7" cy="53.6" r="2.08" xlink:href="#radial-gradient-9"/><radialGradient id="radial-gradient-28" cx="85.88" cy="29.75" r="2.08" xlink:href="#radial-gradient-9"/><radialGradient id="radial-gradient-29" cx="14.13" cy="40.87" r="2.08" xlink:href="#radial-gradient-9"/><radialGradient id="radial-gradient-30" cx="19.39" cy="29.87" r="2.08" xlink:href="#radial-gradient-9"/><radialGradient id="radial-gradient-31" cx="36.63" cy="30.69" r="2.08" xlink:href="#radial-gradient-9"/><radialGradient id="radial-gradient-32" cx="26.1" cy="12.5" r="2.08" xlink:href="#radial-gradient-9"/><radialGradient id="radial-gradient-33" cx="39.53" cy="13.76" r="2.08" xlink:href="#radial-gradient-9"/><radialGradient id="radial-gradient-34" cx="111.23" cy="19.61" r="2.08" xlink:href="#radial-gradient-9"/><radialGradient id="radial-gradient-35" cx="114.11" cy="22.97" r="2.08" xlink:href="#radial-gradient-9"/><radialGradient id="radial-gradient-36" cx="50.89" cy="53.84" r="2.08" xlink:href="#radial-gradient-9"/><radialGradient id="radial-gradient-37" cx="11.11" cy="32.61" r="2.08" xlink:href="#radial-gradient-9"/><radialGradient id="radial-gradient-38" cx="87.79" cy="13.2" r="2.08" xlink:href="#radial-gradient-9"/><radialGradient id="radial-gradient-39" cx="90.7" cy="55.59" r="2.08" xlink:href="#radial-gradient-9"/><radialGradient id="radial-gradient-40" cx="1.5" cy="31.63" r="2.08" xlink:href="#radial-gradient-9"/><radialGradient id="radial-gradient-41" cx="2.8" cy="16.96" r="2.08" xlink:href="#radial-gradient-9"/><radialGradient id="radial-gradient-42" cx="23.64" cy="18.64" r="2.08" xlink:href="#radial-gradient-9"/><radialGradient id="radial-gradient-43" cx="27.89" cy="12.68" r="2.08" xlink:href="#radial-gradient-9"/><radialGradient id="radial-gradient-44" cx="87.56" cy="41.23" r="2.08" xlink:href="#radial-gradient-9"/><radialGradient id="radial-gradient-45" cx="62.25" cy="25.76" r="2.08" xlink:href="#radial-gradient-9"/><radialGradient id="radial-gradient-46" cx="111.25" cy="11.85" r="2.08" xlink:href="#radial-gradient-9"/><radialGradient id="radial-gradient-47" cx="-0.74" cy="30.14" r="2.08" xlink:href="#radial-gradient-9"/><radialGradient id="radial-gradient-48" cx="11.11" cy="19.93" r="2.08" xlink:href="#radial-gradient-9"/><radialGradient id="radial-gradient-49" cx="3.45" cy="24.69" r="2.08" xlink:href="#radial-gradient-9"/><radialGradient id="radial-gradient-50" cx="115.7" cy="35.98" r="2.08" xlink:href="#radial-gradient-9"/><radialGradient id="radial-gradient-51" cx="90.11" cy="46.16" r="2.08" xlink:href="#radial-gradient-9"/><radialGradient id="radial-gradient-52" cx="45.68" cy="38.07" r="2.08" xlink:href="#radial-gradient-9"/><radialGradient id="radial-gradient-53" cx="66.2" cy="38.77" r="2.08" xlink:href="#radial-gradient-9"/><radialGradient id="radial-gradient-54" cx="101.16" cy="56.18" r="2.08" xlink:href="#radial-gradient-9"/><radialGradient id="radial-gradient-55" cx="119.04" cy="48.94" r="2.08" xlink:href="#radial-gradient-9"/><radialGradient id="radial-gradient-56" cx="62.39" cy="40.59" r="1.04" gradientTransform="translate(-0.58 -0.17) scale(1 1.01)" gradientUnits="userSpaceOnUse"><stop offset="0.14" stop-color="#ccc"/><stop offset="0.14" stop-color="#c6c6c6"/><stop offset="0.18" stop-color="#9d9d9d"/><stop offset="0.22" stop-color="#777"/><stop offset="0.27" stop-color="#575757"/><stop offset="0.33" stop-color="#3b3b3b"/><stop offset="0.39" stop-color="#252525"/><stop offset="0.46" stop-color="#141414"/><stop offset="0.54" stop-color="#090909"/><stop offset="0.66" stop-color="#020202"/><stop offset="1"/></radialGradient><radialGradient id="radial-gradient-57" cx="27.34" cy="31.22" r="1.04" xlink:href="#radial-gradient-56"/><radialGradient id="radial-gradient-58" cx="22.84" cy="12.66" r="1.04" xlink:href="#radial-gradient-56"/><radialGradient id="radial-gradient-59" cx="75.74" cy="36.41" r="1.04" xlink:href="#radial-gradient-56"/><radialGradient id="radial-gradient-60" cx="37.45" cy="54.07" r="1.04" xlink:href="#radial-gradient-56"/><radialGradient id="radial-gradient-61" cx="81.72" cy="46.85" r="1.04" xlink:href="#radial-gradient-56"/><radialGradient id="radial-gradient-62" cx="47.19" cy="46.51" r="1.04" xlink:href="#radial-gradient-56"/><radialGradient id="radial-gradient-63" cx="98.94" cy="49.33" r="1.04" xlink:href="#radial-gradient-56"/><radialGradient id="radial-gradient-64" cx="83.4" cy="8.09" r="1.04" xlink:href="#radial-gradient-56"/><radialGradient id="radial-gradient-65" cx="100.83" cy="33.95" r="1.04" xlink:href="#radial-gradient-56"/><radialGradient id="radial-gradient-66" cx="29.19" cy="9.82" r="1.04" xlink:href="#radial-gradient-56"/><radialGradient id="radial-gradient-67" cx="86.76" cy="36.2" r="1.04" xlink:href="#radial-gradient-56"/><radialGradient id="radial-gradient-68" cx="91.39" cy="1.97" r="1.04" xlink:href="#radial-gradient-56"/><radialGradient id="radial-gradient-69" cx="38.78" cy="22.34" r="1.04" xlink:href="#radial-gradient-56"/><radialGradient id="radial-gradient-70" cx="65.67" cy="27.19" r="1.04" xlink:href="#radial-gradient-56"/><radialGradient id="radial-gradient-71" cx="22.74" cy="8.68" r="1.04" xlink:href="#radial-gradient-56"/><radialGradient id="radial-gradient-72" cx="30.59" cy="1.67" r="1.04" xlink:href="#radial-gradient-56"/><radialGradient id="radial-gradient-73" cx="37.13" cy="53.36" r="1.04" xlink:href="#radial-gradient-56"/><radialGradient id="radial-gradient-74" cx="79.73" cy="9.18" r="1.04" xlink:href="#radial-gradient-56"/><radialGradient id="radial-gradient-75" cx="40.6" cy="12.93" r="1.04" xlink:href="#radial-gradient-56"/><radialGradient id="radial-gradient-76" cx="105.87" cy="9.59" r="1.04" xlink:href="#radial-gradient-56"/><radialGradient id="radial-gradient-77" cx="100.14" cy="56.33" r="1.04" xlink:href="#radial-gradient-56"/><radialGradient id="radial-gradient-78" cx="61.2" cy="55.02" r="1.04" xlink:href="#radial-gradient-56"/><radialGradient id="radial-gradient-79" cx="54.19" cy="8.36" r="1.04" xlink:href="#radial-gradient-56"/><radialGradient id="radial-gradient-80" cx="37.04" cy="10.19" r="1.04" xlink:href="#radial-gradient-56"/><radialGradient id="radial-gradient-81" cx="29.35" cy="47.55" r="1.04" xlink:href="#radial-gradient-56"/><radialGradient id="radial-gradient-82" cx="85.59" cy="2.58" r="1.04" xlink:href="#radial-gradient-56"/><radialGradient id="radial-gradient-83" cx="26.3" cy="22.64" r="1.04" xlink:href="#radial-gradient-56"/><radialGradient id="radial-gradient-84" cx="66.46" cy="50.62" r="1.04" xlink:href="#radial-gradient-56"/><radialGradient id="radial-gradient-85" cx="102.39" cy="25.07" r="1.04" xlink:href="#radial-gradient-56"/><radialGradient id="radial-gradient-86" cx="43.06" cy="51.8" r="1.04" xlink:href="#radial-gradient-56"/><radialGradient id="radial-gradient-87" cx="60.07" cy="48.47" r="1.04" xlink:href="#radial-gradient-56"/><radialGradient id="radial-gradient-88" cx="22.69" cy="46.45" r="1.04" xlink:href="#radial-gradient-56"/><radialGradient id="radial-gradient-89" cx="94.91" cy="12.15" r="1.04" xlink:href="#radial-gradient-56"/><radialGradient id="radial-gradient-90" cx="37.36" cy="26.71" r="1.04" xlink:href="#radial-gradient-56"/><radialGradient id="radial-gradient-91" cx="91.43" cy="48.66" r="1.04" xlink:href="#radial-gradient-56"/><radialGradient id="radial-gradient-92" cx="51.91" cy="25.16" r="1.04" xlink:href="#radial-gradient-56"/><radialGradient id="radial-gradient-93" cx="97.66" cy="22.29" r="1.04" xlink:href="#radial-gradient-56"/><radialGradient id="radial-gradient-94" cx="98.82" cy="55.49" r="1.04" xlink:href="#radial-gradient-56"/><radialGradient id="radial-gradient-95" cx="43.14" cy="18.33" r="1.04" xlink:href="#radial-gradient-56"/><radialGradient id="radial-gradient-96" cx="24.28" cy="1.21" r="1.04" xlink:href="#radial-gradient-56"/><radialGradient id="radial-gradient-97" cx="43.79" cy="30.22" r="1.04" xlink:href="#radial-gradient-56"/><radialGradient id="radial-gradient-98" cx="79.31" cy="54.44" r="1.04" xlink:href="#radial-gradient-56"/></defs><g style="isolation:isolate"><g id="Layer_1" data-name="Layer 1"><rect width="120" height="60" style="fill:#04143e"/><path d="M51.79,60a45.55,45.55,0,0,0,2.06-13.6A45.42,45.42,0,0,0,0,1.62V60Z" style="mix-blend-mode:screen;fill:url(#radial-gradient)"/><path d="M120,0H83.42a38.59,38.59,0,0,0-2.91,14.77A38.53,38.53,0,0,0,119,53.39h1Z" style="mix-blend-mode:screen;fill:url(#radial-gradient-2)"/><path d="M120,0H82.61c0,.28,0,.55,0,.83A38.54,38.54,0,0,0,120,39.44Z" style="mix-blend-mode:screen;fill:url(#radial-gradient-3)"/><path d="M97.78,60a38.44,38.44,0,0,0-76.7,0Z" style="mix-blend-mode:screen;fill:url(#radial-gradient-4)"/><path d="M19.23,0A38.54,38.54,0,0,0,57.66,37.46,38.53,38.53,0,0,0,96.09,0Z" style="mix-blend-mode:screen;fill:url(#radial-gradient-5)"/><polygon points="120 59.67 119.79 60 119.85 60 120 59.77 120 59.67" style="mix-blend-mode:color-dodge;fill:url(#linear-gradient)"/><polygon points="2.91 60 0 57.18 0 57.26 2.83 60 2.91 60" style="mix-blend-mode:color-dodge;fill:url(#linear-gradient-2)"/><path d="M6.41,55.09h0L7.11,60h0l-.65-4.92A.55.55,0,0,0,6.69,55L10,60h.07L6.73,55A.55.55,0,0,0,7,54.56H7A.54.54,0,0,0,6.41,54h0l-.19-1.51L4.69,41h0l2.73,8.76L10.64,60h0L4.77,41a.53.53,0,0,0,.2-.13l0,0L19.25,51.32,18,53.61,12.7,60h.07l5.11-6.15-1.55,2.88a.44.44,0,0,0-.23-.06.54.54,0,0,0-.53.54h0a.51.51,0,0,0,.13.34l-.54.51L13.11,60h.08l2.54-2.41a.49.49,0,0,0,.24.14l-.32,1.64-.13.63h.06L16,57.74h.07a.54.54,0,0,0,.51-.37l3.46.94a.49.49,0,0,0,0,.12.56.56,0,0,0,.22.44L19.59,60h.06l.68-1.09a.85.85,0,0,0,.17.06l-.13,1V60h.06l.13-1h0l.15,0,.36,1h.06l-.37-1.06a.55.55,0,0,0,.29-.29.56.56,0,0,0,0-.12L30,59.61l3.17.39h.45L21.12,58.48s0,0,0,0a.46.46,0,0,0-.06-.23L30.72,53a.56.56,0,0,0,.46.26.54.54,0,0,0,.21,0,.42.42,0,0,0,.14-.09L38.19,60h.07L34.7,56.32l-2.6-2.69L38.8,60h.07l-7.28-6.93a.62.62,0,0,0,.12-.35.5.5,0,0,0-.19-.41l7.39-10,1,.36a.45.45,0,0,0,0,.16.46.46,0,0,0,0,.21.51.51,0,0,0,.39.32l1,15.63-1.47,1h.1l1.37-.94.06.94h.05l-.06-1,1.81-1.24L42.33,60h.06l.79-2.27,1-.72,1-.69.09.1-.64.86-2,2.72h.07l.66-.9a.4.4,0,0,0,0,.15.53.53,0,0,0,0,.18l-.36.57h.06l.33-.51a.55.55,0,0,0,.17.2.54.54,0,0,0,.3.1H44L43.8,60h.07l.19-.21.07.21h.06l-.08-.25h0a.5.5,0,0,0,.19-.13l.42.38h.08l-.46-.42a.56.56,0,0,0,.09-.17h0l1.74.42,0,.18h.06l0-.17.7.17h.23l-.94-.22,0-.24,4.07.46h.48l-4.56-.52-.25-1.69L51,52.35a.56.56,0,0,0,.35.13.52.52,0,0,0,.21,0h0l.86,1.62,3.19,6h.06l-4.07-7.6A.51.51,0,0,0,51.9,52a.57.57,0,0,0-.26-.47L54.46,46a.4.4,0,0,0,.22.05h0l.87,6.47,1,7.5h0L54.77,46a.53.53,0,0,0,.44-.52.58.58,0,0,0,0-.19l1-.42,3.11-1.34,4.11.37v0a.54.54,0,0,0,.54.53h0a.53.53,0,0,0,.53-.53h.26L57.92,60H58l6.76-16.09.81,0L63.88,54h-.06a.52.52,0,0,0-.49.33.46.46,0,0,0,0,.21.53.53,0,0,0,.16.38L59,60h.07l1.21-1.38,3.22-3.69a.55.55,0,0,0,.33.11h0l.39,5h0l-.16-2L63.89,55a.57.57,0,0,0,.26-.12l2.21,2.52a.53.53,0,0,0-.16.38.54.54,0,0,0,.54.54h0a.51.51,0,0,0,.36-.15l.11.1.36.35a.47.47,0,0,0-.08.14.46.46,0,0,0,0,.2.55.55,0,0,0,.09.29l-1,.71h.1l.92-.66a.59.59,0,0,0,.28.18l-.11.48h.06l.1-.47H68a.3.3,0,0,0,.13,0l.14.48h.06l-.15-.49a.49.49,0,0,0,.26-.21.49.49,0,0,0,.09-.3.5.5,0,0,0-.08-.27l1.64-1.11L72,57.48,71.86,60h0l.16-2.52,1-.07L75.14,60h.07l-2.08-2.59,4.93-.34,7.11,1,7.13,1v0a.48.48,0,0,0,.15.37L92,60h.08l.41-.44a.61.61,0,0,0,.31.13V60h0v0h0l0-.32a.5.5,0,0,0,.39-.24l1,.56h.11l-1.07-.61a.61.61,0,0,0,.06-.24.54.54,0,0,0-.54-.53.56.56,0,0,0-.31.09l-1.65-2.13,0,0L95.42,60h.09l-.59-.46-4-3,0-.09L95.52,60h.09L91,56.34a.41.41,0,0,0,0-.16.54.54,0,0,0-.53-.54h0a.54.54,0,0,0-.28.08L86,52.31a.46.46,0,0,0,.08-.19l1,.19,7.71,1.46v.08a.52.52,0,0,0,.53.53.47.47,0,0,0,.17,0L97.64,60h0l-1.85-4.79,0,0,2,4.74H98l-2.44-5.67a.54.54,0,0,0,.29-.47l3.91-.11a.53.53,0,0,0,.43.48L99.37,60h0l0-.3.75-5.46h0a.54.54,0,0,0,.3-.1.49.49,0,0,0,.17-.18l1.34.67L112.88,60H113l-12.26-6.08a.5.5,0,0,0,.05-.21.53.53,0,0,0-.14-.35l10.36-10a.51.51,0,0,0,.36.14.36.36,0,0,0,.15,0l3.09,9,2.06,6L113.16,60h.13l3.39-1.53.25.73-.09.8h.06l.07-.69.24.69h.06l-.28-.81.1-.9.63-.29.16,2h.06l-.17-2,1.07-.48a.58.58,0,0,0,.22.22L118,60H118l1.09-2.25L118.27,60h.06l.83-2.24h0L118.67,60h.06l.47-2.09L118.9,60H119l.31-2.22h0a.54.54,0,0,0,.53-.54.53.53,0,0,0-.32-.49.54.54,0,0,0-.21,0,.55.55,0,0,0-.29.09l-1.22-1.66a.54.54,0,0,0,.12-.7L120,53v-.07l-2.1,1.48a.41.41,0,0,0-.14-.12l2.24-3.9v-.1l-1,1.64-1.33,2.33a.54.54,0,0,0-.25-.06.45.45,0,0,0-.2,0h0l-5.61-10.85a.54.54,0,0,0,.26-.35v0l8.1.55v-.06l-8-.54,7.14-.18.9,0v-.05l-8.1.2a.53.53,0,0,0-.53-.5h0l0-.46-.08-1a.53.53,0,0,0,.32-.15.61.61,0,0,0,.13-.22l8.3,2.12v0l-8.29-2.12a.41.41,0,0,0,0-.11.52.52,0,0,0-.3-.48l1.15-2.83.18,0a.52.52,0,0,0,.44-.24L120,41V41l-6.78-4.13a.59.59,0,0,0,.07-.26s0-.07,0-.1L120,34.82v0l-6.74,1.64a.55.55,0,0,0-.27-.33l7-15.8h0v-1a.53.53,0,0,0-.37.44l-10.26-.82v0a.52.52,0,0,0-.11-.32l5.85-5a.54.54,0,0,0,.39-.33L117,12l3-.2v-.06L117,12l3-2.54V9.34L116.93,12l-.49,0L120,9.33l0,0V9.22L116.34,12l-.68,0-1.15.08-.18-.31.29-.15L120,9V8.89l-4.89,2.35L120,8.74V8.68l-5.77,3,0,0L120,8.06V8l-5.82,3.55L109,2.46a.54.54,0,0,0,.24-.44L111,2l9-.24V1.67L109.26,2a.55.55,0,0,0-.14-.33L110.71,0h-.07l-1.56,1.61h0L110.3,0h-.07L109,1.57a.47.47,0,0,0-.09-.06.52.52,0,0,0-.21,0,.54.54,0,0,0-.4.18L106.24,0h-.08l2.13,1.7a.52.52,0,0,0-.1.31.54.54,0,0,0,.33.49.49.49,0,0,0,.21,0,.63.63,0,0,0,.19,0l2.8,6.58L104.09,0H104l7.77,9.26,1.06,2.5L108.7,9.33a.71.71,0,0,0,.06-.25.54.54,0,0,0-.54-.54.55.55,0,0,0-.25.07h0L102.85,0h-.13L97.08,4.93a.57.57,0,0,0-.21-.13L98.3,0h-.06L96.82,4.78h0L97.66,0H97.6l-.84,4.77h-.07a.54.54,0,0,0-.28.08l-.23-.33L93,0H93l3.41,4.88a.56.56,0,0,0-.17.21l0,.11L92,4.62V4.51a.53.53,0,0,0,0-1.06L91.93,0h-.05l.05,3.45a.52.52,0,0,0-.43.27L87.8,1.85,89.15.73,90,0h-.08l-.27.22L87.75,1.83,84.12,0H84l3.7,1.86L85.9,3.38a.46.46,0,0,0-.18-.13.54.54,0,0,0-.21,0,.54.54,0,0,0-.54.54.55.55,0,0,0,.33.5.65.65,0,0,0,.21,0,.48.48,0,0,0,.29-.09l1.54,2.09-7,3.53a.53.53,0,0,0-.46-.28.54.54,0,0,0-.22.05L75.19.86,74.75,0h-.06l4.12,8.06L74.44,0h-.06l1.93,3.55,3.28,6.06a.57.57,0,0,0-.19.22L67.83,4.66,71.68.4A.58.58,0,0,0,72,.52.53.53,0,0,0,72.55,0H71.49a.51.51,0,0,0,.15.36L67.78,4.64l-.2-.09.56-2.12L68.78,0h-.06L67.53,4.53l-6.69-3a.58.58,0,0,0,0-.19h0a.58.58,0,0,0-.1-.32L62,0h-.08L60.73,1A.5.5,0,0,0,60.34.8a.54.54,0,0,0-.54.54h0a.54.54,0,0,0,.18.4L56.09,0H56l4,1.79L56.87,6a.62.62,0,0,0-.3-.09.53.53,0,0,0-.51.39L51,6.81l-5.28.56.69-1.88L52.47,0h-.08l-6,5.38,1.11-3,.37-1,.47-.77a.59.59,0,0,0,.26.07.54.54,0,0,0,.53-.54V0h-1a.11.11,0,0,0,0,.05L44.24,7.1A.44.44,0,0,0,44,7a.54.54,0,0,0-.53.54.52.52,0,0,0,0,.21.54.54,0,0,0,.49.33h.05l.27,2.11a.54.54,0,0,0-.33.2L37.25,5.85a.54.54,0,0,0,.08-.28.6.6,0,0,0-.06-.23L46.84,0h-.11L37.24,5.29a.52.52,0,0,0-.4-.25l.22-5H37l-.07,1.56L36.79,5a.56.56,0,0,0-.38.15.59.59,0,0,0-.15.33l-5.84-.23-4.59-.18a.54.54,0,0,0,0-.22l2-1.08L35,0h-.11L33.06,1l-7.3,3.88a.55.55,0,0,0-.46-.27.65.65,0,0,0-.21,0,.61.61,0,0,0-.24.21l-1.14-.68A.49.49,0,0,0,23.47,4l0,0,.11-.9L33.5,0h-.18L23.54,3l.39-3h-.05l-.39,3V3l-.59.18A.53.53,0,0,0,22.69,3l-.1,0L23.54,0h-.06l-.94,2.87L23.19,0h-.05l-.65,2.88h-.15L20.59,0h-.07l1.77,2.88a.54.54,0,0,0-.36.26l-1.64-1.6L18.7,0h-.07l3.22,3.13L18.38,1.55a.64.64,0,0,0,0-.2h0a.54.54,0,0,0-1.07,0h0a.53.53,0,0,0,.16.38L7.71,12.39l-.25-.15L15.14,0h-.06L7.41,12.22l-.27-.16a.48.48,0,0,0,.06-.24h0a.54.54,0,1,0-1.07,0h0a.76.76,0,0,0,0,.16L1.62,13.69h0L14.48,0H14.4L1.94,13.25l-.37.39a.51.51,0,0,0-.34-.13.55.55,0,0,0-.42.2L0,13.11v.07l.23.17L0,13.2v.06l.77.52A.53.53,0,0,0,.69,14L0,14.29v.06l.69-.26a.35.35,0,0,0,0,.11L0,14.46v0l.73-.26a.53.53,0,0,0,1-.2h.07l3.64-.16-4,7.21A.46.46,0,0,0,1.19,21a.53.53,0,0,0-.49.32L0,21.08v.06l.68.27a.45.45,0,0,0,0,.16.41.41,0,0,0,0,.16L0,22V22l.69-.25A.43.43,0,0,0,.81,22a.45.45,0,0,0,.24.14L0,27.26v.27l.15-.73,1-4.7h0L.65,28.87.14,29A.55.55,0,0,0,0,28.79v.78l0,0L.58,30,0,38.21v1.48a.53.53,0,0,0,.5-.53h0a.5.5,0,0,0-.08-.27L6.68,34.8l.87.7L5.68,38.6,4.84,40a.51.51,0,0,0-.25-.06.56.56,0,0,0-.38.15.6.6,0,0,0-.15.31l-.51,0L0,40.06v0l3.68.31.38,0h0a.53.53,0,0,0,.53.54h0L6.32,54l-.14,0L0,42.67v.11l.06.11L6.14,54.1a.51.51,0,0,0-.25.4L0,54.23v.05l.89,0,5,.24h0L0,55H0v.06l5.89-.46A.52.52,0,0,0,6.41,55.09Zm110.54,4-.22-.62.31-.14Zm.73-3.85.09,0,1.11,1.52.1.15a.53.53,0,0,0-.2.41.65.65,0,0,0,0,.2l-1,.47-.23-2.66Zm-.21,0h0l.16,1.89.06.8-.61.27.34-3ZM111.6,43.42l5.61,10.84a.55.55,0,0,0-.27.47.53.53,0,0,0,.45.52l-.35,3-.32.15-5.15-15ZM5,40.76l0-.1L13,43.25a.51.51,0,0,0,.15.36.55.55,0,0,0,.38.16.51.51,0,0,0,.3-.09l5.55,7.49-.06.1ZM6.91,13.59l.27-.15.05.18.21.63L6.93,14a.64.64,0,0,0,0-.2A.59.59,0,0,0,6.91,13.59Zm.17-.43.08.23-.28.15-.07-.09Zm-.31.25,0,0L7,13l0,.15Zm.45,0,1.11-.61,14.4,8.34h0L7.91,14.46l-.4-.18Zm44.39,6.91-1.44,8h-.06a.54.54,0,0,0-.28.08L38,10.78l.11-.11,1.47,1,11.66,7.87a.6.6,0,0,0-.07.27h0A.54.54,0,0,0,51.61,20.33Zm.65-.53h0a.34.34,0,0,0,0-.1l7.24-1.81,5-1.24a.56.56,0,0,0,.39.37l-.92,4.87-1.06,5.63-2.45.26a.52.52,0,0,0-.52-.45.51.51,0,0,0-.39.17l-7.37-7.34a.55.55,0,0,0,.13-.36ZM66.88,5.11l-2.54.27L61.48,2.46l2.71,1.21,2.73,1.22a.43.43,0,0,0,0,.19ZM77.6,18.24l1-.41.58-.24.06.1-3.19,2.74.82-1.53a.51.51,0,0,0,.22.05.54.54,0,0,0,.54-.53A.52.52,0,0,0,77.6,18.24ZM90.93,4.47,86,3.79h0l1.88.07L91.43,4a.54.54,0,0,0,0,.21Zm0,.06.43.06L91,5l-.68-.16Zm-.09,0-.62.3-4.15-1Zm-.61.36.71.17L88.62,7.58,87.54,6.24Zm.4,5.31a.45.45,0,0,0-.28.09l-1.85-2.5.11-.11ZM88.58,7.62l-.1.11L87.42,6.3l.07,0Zm1.74,2.69a.54.54,0,0,0-.2.41.54.54,0,0,0,.53.54h0l.19,1.55-4.83,1.95-5.9,2.38a.86.86,0,0,0-.1-.16l8.43-9.16Zm.87.39,1-.1,0,1-.76-.44-.33-.41s0,0,0-.07Zm17.33,8.6-.9,1.36L103,17.94a.56.56,0,0,0,0-.12l5.28,1s0,.05,0,.07A.53.53,0,0,0,108.52,19.3Zm2.14,21.14L94.91,42.88a.5.5,0,0,0,0-.13L105,37a.56.56,0,0,0,.46.25.48.48,0,0,0,.29-.09.65.65,0,0,0,.18-.19l4.84,3.17a.5.5,0,0,0-.08.27S110.66,40.42,110.66,40.44ZM93.86,43l-1.58.2-4.12.53,0-.08,2.27-.92,5.12-2.06-.91,1.8a.54.54,0,0,0-.22,0,.54.54,0,0,0-.54.54h0Zm-6.44,1.32h0l-1.84,7.11h0l.46-3.56,1-7.92h.08l.37,3.33a.55.55,0,0,0-.44.53A.53.53,0,0,0,87.42,44.35ZM85.08,52.3l-2,1.55,0,0a.5.5,0,0,0-.19-.13L87,40h0L85.56,51.46h0A.54.54,0,0,0,85,52,.53.53,0,0,0,85.08,52.3ZM65.59,40.55s0,0,0,0l-2.43.33L60.7,31l1.16-.42a.57.57,0,0,0,.19.24l.07,0h0a.52.52,0,0,0,.21,0,.53.53,0,0,0,.53-.45l6.83.73v0h0a.54.54,0,0,0,1.07,0h0a.52.52,0,0,0-.11-.33l2.2-1.84.94.62L66.49,40.16a.51.51,0,0,0-.36-.15h0A.54.54,0,0,0,65.59,40.55Zm0,.18-2.27,1L63.18,41l2.42-.33Zm-15,1.93,2.94-.4.26.75-3.19-.29v0S50.6,42.67,50.59,42.66Zm3.59,3.05,0,0-3.88,2.42L45.83,51l-.06-.08a.76.76,0,0,0-.19-.12L50.73,35l.06,0-.7,7.2h0a.54.54,0,0,0-.53.54.52.52,0,0,0,.33.49.46.46,0,0,0,.2.05.55.55,0,0,0,.45-.24l3.7,2.24a.56.56,0,0,0-.07.26A.78.78,0,0,0,54.18,45.71ZM40.52,40.22a.18.18,0,0,0-.07,0v0a.62.62,0,0,0-.3-.09.54.54,0,0,0-.52.4l-1.34-.28-5.16-6.43-2.43-3,6.43,0a.53.53,0,0,0,.53.51.54.54,0,0,0,.54-.53.61.61,0,0,0,0-.15,1,1,0,0,0,0-.1l1.56-.89,6.91,1.79a.36.36,0,0,0,0,.1.55.55,0,0,0,.24.45L40.85,42l-.45-.92a.54.54,0,0,0,.27-.47A.56.56,0,0,0,40.52,40.22ZM33.05,22.73l2.81,4.93-.67-.11-.72-.91-3.13-4,.8-.48a.55.55,0,0,0,.44.24Zm-.38-.33.16,0,.16.27Zm27.75,5.44,2.43-.26-.21,1.15L60.4,28a.59.59,0,0,0,0-.13Zm16.23-9.12h0s0,0,0,.05L69.37,26.1A.52.52,0,0,0,69,26a.53.53,0,0,0-.5.35L65.17,17a.56.56,0,0,0,.32-.38l11.08,1.75a.13.13,0,0,0,0,.06A.53.53,0,0,0,76.65,18.72Zm.16,7.3,13.39-.88a.55.55,0,0,0,.1.26l-9.81,8a.5.5,0,0,0-.39-.18.54.54,0,0,0-.22.05L76.55,26.6l.12-.08a.56.56,0,0,0,.15-.38A.49.49,0,0,0,76.81,26Zm3.36-8.83,10.72-4.33.66,5.44-.78,6.25h0a.56.56,0,0,0-.38.15l0,.06-8.79-6.14-1.4-1a.54.54,0,0,0,.08-.28A.47.47,0,0,0,80.17,17.19Zm12.79,8,2.66-.46L106.07,23l-6,9-6.82-6-.43-.37a.5.5,0,0,0,.12-.33Zm16.75-3a.15.15,0,0,0,0,.07h-.09l-.11-.47.25.15A.5.5,0,0,0,109.71,22.23Zm.09.3,0,0,0,0-.13.13-.08-.35.08,0A.75.75,0,0,0,109.8,22.53Zm-.24-.25v0l-3.38.59,1.21-1.83.23-.35,1.83,1.07Zm0,.1.08.38-9.44,9.35-.1-.09,6-9.05ZM97.37,38l7.52-1.19a.64.64,0,0,0,0,.07L95.64,40.6l.29-.58.75-1.47.16,0a.52.52,0,0,0,.49-.33.45.45,0,0,0,0-.2Zm7.51-1.29a.09.09,0,0,0,0,.05l-7.53,1.18a.58.58,0,0,0-.2-.31l2.21-4.35a.54.54,0,0,0,.22.05.51.51,0,0,0,.43-.22L105,36.41A.51.51,0,0,0,104.88,36.69Zm-5-4.34.19-.29.09.08-.24.24Zm3.83,3.18,1.25.82h0v0ZM100.05,33l0-.09,1.5.43,3.1,2.71Zm.06-.14a.5.5,0,0,0,0-.12h0a.55.55,0,0,0-.14-.36l.24-.24,1.28,1.12ZM95,27.62l5,4.41-.19.29a.53.53,0,0,0-.81.46h0a.54.54,0,0,0,.27.46l-2.21,4.34a.57.57,0,0,0-.28-.08l-.15,0-1.16-3.33-2.9-8.39.1-.05.08-.07Zm1.61,9.92h0L91,25.55a.33.33,0,0,0,.1-.06.61.61,0,0,0,.18-.31l.64.08a.09.09,0,0,0,0,0,.54.54,0,0,0,.54.53l.15,0Zm-.33.54-8.65,1.27a.53.53,0,0,0-.52-.43.46.46,0,0,0-.21,0,.45.45,0,0,0-.19.14l-6.21-5a.8.8,0,0,0,.08-.16l9.06,2.32,6.64,1.69s0,.07,0,.11ZM80.1,34.3h0l1.06,8h0l-2.92-9.75,1.39.92a.5.5,0,0,0-.08.27h0A.54.54,0,0,0,80.1,34.3Zm.09,0a.53.53,0,0,0,.31-.17l6.2,5a.54.54,0,0,0,0,.56l-4.41,2.56-.51.3a.53.53,0,0,0-.45-.25h0Zm1.64,8.56h0a.71.71,0,0,0-.06-.25l1.31-.76,3.61-2.1A.49.49,0,0,0,87,40L82.81,53.68l-.12,0h0L81.38,43.38A.54.54,0,0,0,81.83,42.85Zm8.22-6.57-9.43-2.41a.34.34,0,0,0,0-.1h0a.58.58,0,0,0-.1-.32l9.81-8a.5.5,0,0,0,.39.18.78.78,0,0,0,.21,0l5.64,12a.58.58,0,0,0-.24.27.43.43,0,0,0,0,.05Zm.78-11.73.74-6,.76,6.26a.5.5,0,0,0-.2.08.56.56,0,0,0-.23.35l-.64-.08s0,0,0-.05A.55.55,0,0,0,90.83,24.55Zm1.56.22L91.6,18.3l.68-5.51h0l.08,9.77,0,2.21Zm-.16-12-.66,5.3-.63-5.24.9-.36A.52.52,0,0,0,92.23,12.78Zm-.22-1-.4-.5.66.39h0A.64.64,0,0,0,92,11.82ZM79.84,33.3a.5.5,0,0,0-.17.15l-1.45-1-.39-1.29-1.36-4.57h0Zm-1.69-.84-4.28-2.81L76,26.59a.51.51,0,0,0,.28.08h.13Zm-4.32-2.84L72.9,29l3-2.52.06.06Zm-1-.64-1-.67,1-1.78,3-.31a.64.64,0,0,0,.1.24Zm-3,.65L69.17,27a.67.67,0,0,0,.2-.12h.17l.44.29,1.77,1.16-1.28,2.4a.59.59,0,0,0-.23-.05h-.11Zm.21,1L68.74,27h0A.5.5,0,0,0,69,27h.11Zm2.79-4.37-.4,0,.41,0Zm0,0,2.45-.12-2.52.27Zm-.06,0-.08.14-3.19.34-.08-.05a.5.5,0,0,0,.08-.27Zm-.11.2-.93,1.74L70,27.14l-.42-.27Zm-.91,1.82,1,.66-2.18,1.83a.38.38,0,0,0-.12-.09Zm4-2.22-1.93.09-.91.05h0l2.84-.19S75.75,26.12,75.75,26.14Zm-2.87.08-3.34.22a.54.54,0,0,0-.11-.27l6.44-5.52Zm-5.13-1.86.74,2.05a.28.28,0,0,0,0,.09.56.56,0,0,0,.15.38l0,0h0l-5.75.61.15-.83L64.89,17H65l.16,0ZM68.69,27,70,30.72a.55.55,0,0,0-.29.31l-5.25-1.7-1.8-.59.22-1.17Zm-6.13,2.91-.08,0,.2-1.06,7,2.28s0,0,0,.05l-2.23-.23-4.6-.49s0,0,0,0A.54.54,0,0,0,62.56,29.88Zm-1.87-1.73,1.94.63-.21,1.07h-.07A.5.5,0,0,0,62,30l-1.72-1.75a.54.54,0,0,0,.1-.16h0ZM62,30a.43.43,0,0,0-.13.27l-1.35-.17L60,28.38a.61.61,0,0,0,.18-.09Zm-1.47.16,1.33.16v0a.77.77,0,0,0,0,.15l-1.16.41Zm.14.78L57,32.25l1.54-2.31,1.88.23Zm-.21-.85-1.84-.22,1-1.56a.6.6,0,0,0,.27.07H60l0,.14Zm-1.9-.23-.88-.11,1.86-1.54a.46.46,0,0,0,.07.07Zm0,.05-1.56,2.35L53.25,33.6a.75.75,0,0,0-.07-.12l3-2.48,1.41-1.18Zm-8.05,4.82-7.91,6.33L41,42.3l-.12-.25,2.37-4L46.87,32a.51.51,0,0,0,.25.06h0a.51.51,0,0,0,.4-.19l2.91,2.29a.31.31,0,0,0,0,.1.46.46,0,0,0-.05.21A.51.51,0,0,0,50.44,34.75ZM47.56,31.8a.59.59,0,0,0,0-.08l.88.36,3.77,1.55a.86.86,0,0,0,0,.17h0a.77.77,0,0,0,0,.15l-.68.23-.19.06a.54.54,0,0,0-.5-.34.5.5,0,0,0-.4.19Zm3.82,2.49.54-.18.34-.11a.57.57,0,0,0,.32.31L51.77,37l-.7-2a.52.52,0,0,0,.24-.2.53.53,0,0,0,.09-.3A.77.77,0,0,0,51.38,34.29Zm-.51.69L51,35l.38,1.1.34,1-.69,2.29-.86,2.83h0l.11-1.07L50.84,35Zm.9,2.17.67,1.92-2.1,3.17-.07,0h0Zm0-.09.83-2.74.13,0a.54.54,0,0,0,.53-.54h0a.77.77,0,0,0,0-.15l3.61-1.29L52.47,39Zm1.35-3.62a.52.52,0,0,0-.39-.17.56.56,0,0,0-.23,0l-1.65-3.05-.5-.93a.51.51,0,0,0,.25-.37l6.88.84Zm-2.22-3,1.55,2.88a.52.52,0,0,0-.21.23l-4.65-1.91a.48.48,0,0,0,0-.18.55.55,0,0,0-.11-.33l2.18-1.91s0,0,0,0a.52.52,0,0,0,.35.13.46.46,0,0,0,.23-.06Zm-3.43.65a.51.51,0,0,0-.38-.16h0a.53.53,0,0,0-.46.27l-4.73-2.45a.47.47,0,0,0,0-.17l4.86.18,2.74.1a.6.6,0,0,0,.12.32Zm-4-1.45,3.11,1.6s0,0,0,.06l-6.85-1.77L41,28.85a.54.54,0,0,0,.45.25.5.5,0,0,0,.44-.24s0,0,0,0ZM26.65,37.18l.28-6.08a.52.52,0,0,0,.46-.4l3.23,0,7.58,9.44L27.13,37.79s0,0,0-.08A.53.53,0,0,0,26.65,37.18Zm-.55.71-6.29,2.65-.36-2.91,5.06-4.78,2-1.9a.46.46,0,0,0,.32.15l0,1.4-.18,4.67a.54.54,0,0,0-.53.54A.57.57,0,0,0,26.1,37.89Zm-5.36,10.2a.52.52,0,0,0,.17.16l-1,1.84.33-2.82.47.27a.55.55,0,0,0-.07.25A.59.59,0,0,0,20.74,48.09Zm-.53-.91-.55-.32-5.32-3.15,5.56,1.83a.68.68,0,0,0,0,.14.54.54,0,0,0,.45.53ZM20,45.37h0a.93.93,0,0,0,0,.1L18,44.81l-4-1.42a.41.41,0,0,0,0-.16.58.58,0,0,0,0-.18l2-.84Zm-3.92-3.19.76-.32,2.27,2.43.94,1v0Zm.12,2,1.84.65-3.89-1.28-.17-.1,0,0Zm3.89,1.06-3.2-3.43,2.89-1.22.56,4.53A.58.58,0,0,0,20.07,45.27ZM32.06,22l-.16-.12h.15S32.06,21.94,32.06,22Zm0-.16h-.25l-2.07-1.45h0l2.37,1.29,0,0A.41.41,0,0,0,32.06,21.82Zm0,.24,0,.06-.81.49-.63-.81,1.12.06Zm3,5.48-7.46-1.17v-.06a.54.54,0,0,0-.53-.54h0a.54.54,0,0,0-.54.54.53.53,0,0,0,.48.53l0,.35L26.88,30h0a.53.53,0,0,0-.46.27l-4.16-2.19,9-5.43Zm.8,1-8.25-2.14,7.5,1.18Zm-.67-.95.66.11.56,1L36,28.58Zm-7.83,2.94A.53.53,0,0,0,27,30l.14-3.19a.49.49,0,0,0,.31-.11l3.1,3.86Zm3.16.1h-.65l-2.52,0s0,0,0,0Zm.07,0h0Zm0,0-3.13-3.89a.52.52,0,0,0,.13-.17l5,2.11,4.53,1.9,0,.15Zm1.67-2.16-4.65-2v0L36,28.63l1.33,1.7a1.09,1.09,0,0,0-.13.17Zm3.78.21.45.12.87,1.51,0,0Zm.52.14,3,.79-1.52.87a.53.53,0,0,0-.45-.25.53.53,0,0,0-.24.06Zm0-.05-.07,0-.56-1,4.94.78v0a.54.54,0,0,0,.06.25l-1.2.68-.08.05ZM41,28.35a.54.54,0,0,0,0,.1l-5-.78-2.78-4.86L41,28.28A.25.25,0,0,0,41,28.35Zm-8.82-6.76-2.36-1.28a.64.64,0,0,0,.05-.24.53.53,0,0,0-.16-.38l.73-.84,1.86,2.6A.81.81,0,0,0,32.13,21.59ZM29.71,20.4l2,1.4-1.08-.05-1-1.27Zm1.56,2.24-9.06,5.44L20.12,27l2.08-3.73L23,21.87a.48.48,0,0,0,.24.06.54.54,0,0,0,.53-.48l6.87.35ZM20.12,26.88l-.05.08-1.62-.85a.42.42,0,0,0,.05-.22.53.53,0,0,0-.91-.38.51.51,0,0,0-.15.35l-5.6,0,0-.14,10.91-4.14a.52.52,0,0,0,.2.24ZM18,26.42,18,30.08a.55.55,0,0,0-.38.2L17,29.83l.88-3.42Zm.06,0h0l.15,1.23.28,2.23-.14.25h0a.41.41,0,0,0-.19,0ZM18.45,30l0,.32a.57.57,0,0,0-.14-.13Zm0-.17-.42-3.38a.54.54,0,0,0,.35-.23l0,0L20,27ZM20.09,27l2.06,1.09-3.61,2.17-.05-.4Zm2.12,1.12,4.18,2.19a.65.65,0,0,0-.05.2l-4.79,0h-3a.47.47,0,0,0,0-.17v-.06Zm4.14,2.49-3.55,0h3.54Zm-7.76,0,7.77.05a.57.57,0,0,0,.11.22l-7,6.66-.85-6.89Zm1.17,9.93L16.83,41.8,16,40.9l3.4-3.22Zm-3,1.25-.77.33-.72-.58.67-.63Zm-.83.35L14,43a.41.41,0,0,0-.07-.11l1.35-1.28Zm-2,1.39.2.07,6.09,3.61-.27,2.26-.08.72-.49.89-5.53-7.46Zm5.92,6.8-.09.73h0a.59.59,0,0,0-.3.09h0Zm.07-.13,1.06-2h0l-1.1,2.83-.07,0Zm.84-2.73-.48-.29.12-1h0a.55.55,0,0,0,.44-.24.51.51,0,0,0,.09-.3.54.54,0,0,0-.53-.54h0l-.56-4.55,6.3-2.66a.58.58,0,0,0,.21.23l-.31.56-4.6,8.58a.46.46,0,0,0-.23-.06A.54.54,0,0,0,20.74,47.5Zm5.63-9.31a.46.46,0,0,0,.23.06h0a.54.54,0,0,0,.49-.33L36,41.22l1.23.46-3.09,1.17L21.68,47.58a.59.59,0,0,0-.22-.25Zm6.32,1.75-5.58-2.07v0l6,1.27,5.17,1.1.65.82-1.62.61Zm5.65.3,1.27.27s0,.06,0,.09a.76.76,0,0,0,0,.16L39,41Zm1.31.57a.5.5,0,0,0,.11.17l0,0-.4.55-.4-.5ZM41,42.34l-.18.14a.43.43,0,0,0-.1-.09l.17-.29Zm0,.49a.78.78,0,0,0,0-.21l-.06-.1.17-.13,4,8.23,0,.06-4.38-7.4A.55.55,0,0,0,40.92,42.83ZM44,48.48l-3-6.13,9.44-7.56a.51.51,0,0,0,.21.15L50,37,45.53,50.77a.34.34,0,0,0-.14,0,.46.46,0,0,0-.21,0Zm6.34-6.21.16-.25,1.92-2.89,1.06,3.08-2.93.39A.56.56,0,0,0,50.38,42.27Zm2.11-3.19L57,32.33,60.65,31l2.46,9.91L53.57,42.2Zm14.12,1.7,0,0-.66.74.08-.48h.06A.53.53,0,0,0,66.61,40.78Zm-.72.24-.79,1.13L65.86,41Zm.06,0,.06,0-.09.57-.42.46Zm0,.61.72-.8a.69.69,0,0,0,.19.1l-.64,2.8-.62,0Zm1-.69h0l0,2.74-.65,0Zm-.39-.75,0,0,7.31-10.5,4.34,2.84,1.31,4.39,1.62,5.41a.56.56,0,0,0-.34.39L67.56,40.51v-.07a.45.45,0,0,0,0-.2.52.52,0,0,0-.49-.33A.51.51,0,0,0,66.55,40.22ZM67,42.48l0-1.5a.57.57,0,0,0,.36-.16l3.06,2.68L67,43.72Zm1-1.2-.57-.5a.62.62,0,0,0,.1-.22l7.11,1.2,6.1,1v.06h0l-10.22.64Zm12.74,1.63a.53.53,0,0,0,.53.47h0l1.26,10.29a.54.54,0,0,0-.29.15L70.6,43.54Zm1.55,11.67a.55.55,0,0,0,.38.15.52.52,0,0,0,.5-.38L90,56.08a.17.17,0,0,1,0,.07H74.16l8-1.82A.58.58,0,0,0,82.31,54.58ZM87.22,40a.49.49,0,0,0,.21-.08.53.53,0,0,0,.24-.45V39.4l6.25-.91,2.39-.35a.44.44,0,0,0,.06.16l-8.3,5.24a.58.58,0,0,0-.23-.18.52.52,0,0,0-.21,0h0Zm4.63,1.24,4.55-2.88a.53.53,0,0,0,.23.19l-1.07,2.1-7.44,3,0,0Zm3.75-.55,9.33-3.76v0L94.84,42.7a.52.52,0,0,0-.19-.17Zm9.82-4.52a.49.49,0,0,0-.3.09l-.09.07h0l-3.3-2.88,4.34,1.24-.5,1.51Zm-2.78-2.53-1-.29-1.36-1.19L107,25.5l2.71-2.67.13.6-3.74,11.18Zm7.09-10.84.15-.15a.59.59,0,0,0,.17.1l-.2.6Zm.07-.84-.29-.17L109,19.39h0l.75,1.8.24.57A.55.55,0,0,0,109.8,21.94Zm-.36-.21-1.77-1,.9-1.36a.5.5,0,0,0,.27.08h.09Zm-1.85-1-1.47,2.21L96.05,24.65l-3.1.54a.54.54,0,0,0-.5-.42l-.1-12a.52.52,0,0,0,.42-.24.49.49,0,0,0,.09-.3A.46.46,0,0,0,92.8,12L102,17.45a.51.51,0,0,0-.06.25.58.58,0,0,0,.15.38.56.56,0,0,0,.38.15A.53.53,0,0,0,103,18Zm-5.08-3.55a.51.51,0,0,0-.44.24l-9.33-5.48a.53.53,0,0,0-.33-.19l-.08-.05,0-1.08L107.7,9.16a.5.5,0,0,0,.21.35l-5.13,7.73A.5.5,0,0,0,102.51,17.16Zm5.18-8.08v0L92.28,10.55l-.23-5.24L107.7,9A.38.38,0,0,0,107.69,9.08Zm-16.31,2L91.13,11s0-.07,0-.11Zm.1.12.49.61,0,0-.89-.81s0,0,0,0Zm.43.67,0,0a.53.53,0,0,0-.09.3.52.52,0,0,0,0,.18l-.89.36-.18-1.54a.57.57,0,0,0,.28-.14ZM80.09,17.69,90.28,24.8a.54.54,0,0,0-.08.28h0L76.79,26a.53.53,0,0,0-.88-.2.5.5,0,0,0-.14.27L73,26.21l3-5.65,3.3-2.83a.22.22,0,0,0,.09.07.49.49,0,0,0,.3.1A.56.56,0,0,0,80.09,17.69Zm-4.15,2.83L69.53,26l6.94-6.93.27-.27a.27.27,0,0,0,.08.07Zm.63-2.21L65.49,16.55a.11.11,0,0,0,0-.05A.54.54,0,0,0,65,16h0l-.13,0-1-3.3-2.1-6.87,2.64-.32,9.15,9.32,3.18,3.25A.55.55,0,0,0,76.57,18.31ZM61.71,5.76v0l2.47-.26-1.34.16Zm2.57-.37-2.59.28-1.1-3.6.76.33Zm-2.62.38-4.56.56a.56.56,0,0,0,0-.12l4.59-.49Zm-4.56.65v0l3-.37,1.55-.19L64.78,16l-.14.08L56.93,6.81A.51.51,0,0,0,57.1,6.42ZM54.57,22.66l4.9,4.88a.29.29,0,0,0-.07.12.46.46,0,0,0,0,.21.59.59,0,0,0,.11.32l-1.89,1.57-6.93-.84v0a.56.56,0,0,0-.15-.38.51.51,0,0,0-.26-.14l1.42-7.93v-.1h.07a.52.52,0,0,0,.36-.14Zm-4.78,5.79a.53.53,0,0,0-.21.39h0L42,28.56a.54.54,0,0,0-.54-.53h-.08l-1.8-8.78-1.71-8.38.14-.06ZM41.31,28a.55.55,0,0,0-.29.2L33.09,22.7l-.21-.38a.52.52,0,0,0,.2-.24.46.46,0,0,0,0-.21.54.54,0,0,0-.53-.54.58.58,0,0,0-.19,0L31,18.15l6.38-7.38a.37.37,0,0,0,.12.07.54.54,0,0,0,.21.05h.08Zm-9-6.65-.05,0-1.88-2.61.54-.62Zm-2-2.63-.23-.32.49-1,.28.65Zm0,0-.73.85-.06,0,.57-1.11Zm-.84.79a.54.54,0,0,0-.22-.05h-.11l-.64-2.4-.38-1.41,1.94,2.71Zm-.38,0a.55.55,0,0,0-.38.51.54.54,0,0,0,.54.54h0a.57.57,0,0,0,.31-.1l1,1.23-1.71-.09-5.11-.26h0a.53.53,0,0,0-.53-.53H23.1L19.34,6.75,21,5.81l2.7,3.76,4.33,6Zm-6.8-1.37.71,2.7a.53.53,0,0,0-.28.21L8.38,12.78l10.91-6Zm.38,3a.65.65,0,0,0,0,.19h0a.47.47,0,0,0,0,.17l-4.3,1.63L11.79,25.7a.53.53,0,0,0-.49-.32l-.14,0-3.63-11ZM11.8,26.13a1.06,1.06,0,0,0,0-.19l5.6,0v0l-4.79.86-.89-.62A.25.25,0,0,1,11.8,26.13ZM17.45,26a.53.53,0,0,0,.36.39l-.88,3.4L14.35,28l-1.64-1.14ZM17,29.88l.64.45a.54.54,0,0,0-.08.28.55.55,0,0,0,.32.5.78.78,0,0,0,.21,0,.54.54,0,0,0,.49-.33l.84,6.79L16,40.86l-1.43-1.53Zm-1,11-.17.16-.51.48-1.06-.85.33-1.3Zm-1.79-.24L7.62,35.49l1-1.69a.55.55,0,0,0,.26.06.51.51,0,0,0,.34-.13l5.23,5.61Zm0,.09,1.05.83-1.35,1.27s0,0,0-.05h0l-.14-.07Zm5,10.82a.09.09,0,0,0,0,0,.53.53,0,0,0,.17.39l-.64.78-.51.61Zm-1.12,2.07,1.32-1.59h0l-2.93,4.56ZM16.6,57a.53.53,0,0,0-.19-.26l3-4.69a.5.5,0,0,0,.27.08.54.54,0,0,0,.53-.54.53.53,0,0,0-.32-.49L21,48.3a.47.47,0,0,0,.17,0,.52.52,0,0,0,.46-.28l9,4.46a.46.46,0,0,0,0,.21.49.49,0,0,0,0,.12Zm11.71-2.79-7.26,3.92a.56.56,0,0,0-.46-.26.54.54,0,0,0-.49.33.06.06,0,0,0,0,0l-2.83-.77-.64-.18a.36.36,0,0,0,0-.11h0a.51.51,0,0,0,0-.13L30.68,52.9l0,.05Zm4.22-3.39-1.05,1.42a.53.53,0,0,0-.3-.09.78.78,0,0,0-.21,0,.55.55,0,0,0-.26.24l-9-4.46a.46.46,0,0,0,0-.21.41.41,0,0,0,0-.16l15.6-5.92,1.56.58Zm6.36-8.6-1.53-.57,1.58-.6.42.52Zm1,.37-1-.35.46-.62.63.78A.62.62,0,0,0,39.89,42.62Zm.18-.22-.64-.8.41-.55a.62.62,0,0,0,.3.09h0l.08,1.19A.35.35,0,0,0,40.07,42.4Zm.2-.09,0-.6.07.6Zm-.05-1.18.13,0,.47,1-.19.31a.51.51,0,0,0-.25-.06h0l0-.22ZM43.13,57.7,41.29,59l-.95-15.59h0a.51.51,0,0,0,.25-.06l.75,1.25,3.71,6.27a.57.57,0,0,0-.24.45.53.53,0,0,0,.16.38.57.57,0,0,0,.18.12l-1,2.8Zm2.07-2a.53.53,0,0,0-.09.3.54.54,0,0,0,.08.28l-2,1.36,2-5.85a.4.4,0,0,0,.15,0,.53.53,0,0,0,.52-.45l4.93.54s0,0,0,0a.55.55,0,0,0,.09.28l-4.86,3.44a.52.52,0,0,0-.41-.21A.55.55,0,0,0,45.2,55.7Zm-1.32,3a.54.54,0,0,0-.25.09l1.54-2.1Zm.06,0,1.37-2.13-1.16,2.18A.72.72,0,0,0,43.94,58.71Zm.34.15-.06-.06h0l1.23-2.3a.54.54,0,0,0,.22,0h.06l.12.82Zm.17.42v0a.57.57,0,0,0-.13-.36l1.51-1.48.05.36-1.41,1.51Zm1.73.48-1.7-.41h0l1.65.19Zm0-.29-1.59-.18,1.35-1.45Zm1.06-3.1-1.26,1.35-.06-.35,4.64-4.54Zm-1.32.93-.12-.77a.54.54,0,0,0,.34-.23.53.53,0,0,0,.09-.3.57.57,0,0,0-.08-.29l3.56-2.52L51,52.28l0,0Zm5.93-6.25-.21.41a.54.54,0,0,0-.22-.05.46.46,0,0,0-.21,0,.52.52,0,0,0-.32.41l-4.92-.55v0a.48.48,0,0,0-.07-.26l8.39-5.22a.44.44,0,0,0,.17.16Zm2.43-5.85L50.53,43a.48.48,0,0,0,.06-.18l3.22.29L54.48,45A.55.55,0,0,0,54.23,45.2Zm2.56-.65-1.64.71a.51.51,0,0,0-.47-.3l-.15,0-.66-1.91,5.27.47Zm2.45-1.06L53.85,43l-.26-.76L63.12,41l.19.75Zm4.12.37-4-.36,4-1.71.4,1.64A.53.53,0,0,0,63.36,43.86Zm.53-.46h-.1l-.41-1.64,2.27-1a.53.53,0,0,0,.16.2L64.34,43.2l-.18.28A.5.5,0,0,0,63.89,43.4Zm.33.12,1.6-2.3-.42,1-.91,1-.26.29Zm.49.34-.29,0a.56.56,0,0,0-.15-.32l1.06-1.19Zm.06,0,.67-1.61.46-.52-.34,2.08Zm.84,0,.62,0L64,53.64ZM66.4,57.4l-1.15-1.3,1.19,1.28Zm.32-.11a.44.44,0,0,0-.23.06L64.2,54.88a.42.42,0,0,0,.11-.16.54.54,0,0,0,0-.21A.55.55,0,0,0,64,54l2.32-10.18.66,0Zm.42.88v0l.24.26Zm1.27.51a.55.55,0,0,0-.43-.21.56.56,0,0,0-.34.12l-.45-.48a.57.57,0,0,0,.08-.29h0L70,57.63Zm1.64-1.11-2.79.19v0l3.83-.87Zm1.31-.89-.15.1-3.74.85,4.15-1.26a.47.47,0,0,0,0,.1Zm.34-.17a.53.53,0,0,0,.13.13l-.48.11Zm.32.92-1.87.13,1.08-.73.67-.15.16,0Zm-.43-1.24h0a.57.57,0,0,0,0,.13l-4.36,1.32a.53.53,0,0,0-.47-.35L67,43.77l3.52-.22L82.27,53.87a.53.53,0,0,0-.12.33s0,.06,0,.09l-8.24,1.87H72.65a.53.53,0,0,0-.53-.51A.54.54,0,0,0,71.59,56.19Zm1.06.05v0h1l-.46.1Zm.43.11-.5.12a1,1,0,0,0,.07-.18Zm-1,1.08.05-.7h0a.47.47,0,0,0,.31-.11l.6.74Zm1-.07-.61-.77,0-.06.7-.15,4.58.65Zm.28-1,.56-.12h15.8l-7.51.52L78.07,57Zm17.15.38h0a.51.51,0,0,0,.3-.1l1.66,2.13a.51.51,0,0,0-.17.3l-14-2L90,56.24A.53.53,0,0,0,90.52,56.72ZM87.8,53.85l2.39,1.9-.07.07-2.9-2.44Zm2.29,2A.48.48,0,0,0,90,56l-3.73-.94-3.07-.78a.34.34,0,0,0,0-.1.55.55,0,0,0-.1-.31l2-1.55.06.06a.51.51,0,0,0,.34.13.57.57,0,0,0,.4-.17Zm4.67-2.14-1.62-.31-7.09-1.34s0,0,0-.07a.51.51,0,0,0-.16-.38.45.45,0,0,0-.22-.13l1.84-7.11h.11a.51.51,0,0,0,.3-.1l5.2,6.79,1.81,2.36A.53.53,0,0,0,94.76,53.72Zm.22-.31-7-9.15a.55.55,0,0,0,.19-.41s0,0,0,0l5.7-.73a.54.54,0,0,0,.53.45h0l.8,9.79A.43.43,0,0,0,95,53.41Zm4.74.29-3.91.1a.54.54,0,0,0-.09-.25.51.51,0,0,0-.44-.24h0l-.63-7.66-.17-2.13a.43.43,0,0,0,.16-.05L100,53.25A.53.53,0,0,0,99.72,53.7Zm.53-.53a.78.78,0,0,0-.21,0l0,0-5.35-9.78a.56.56,0,0,0,.25-.46h0v-.05l9.62-1.5,6.13-.95a.56.56,0,0,0,.16.29l-10.26,12.5A.52.52,0,0,0,100.25,53.17ZM111.31,42.4a.54.54,0,0,0-.46.42.37.37,0,0,0,0,.11.54.54,0,0,0,.13.35l-4.12,4-6.23,6h0L103.35,50l7.52-9.17a.52.52,0,0,0,.32.11h0Zm.29-3.08-.23.56a.58.58,0,0,0-.18,0,.57.57,0,0,0-.38.16.18.18,0,0,0,0,.07l-4.85-3.18a.45.45,0,0,0,0-.2.52.52,0,0,0-.34-.5l.5-1.51,5.8,1.67.32.09a.49.49,0,0,0,0,.12.54.54,0,0,0,.3.49Zm.65-2.93-6.12-1.76,3.71-11.1L112.61,36A.53.53,0,0,0,112.25,36.39Zm-2.88-17.45,7.32.59,2.93.24h0a.65.65,0,0,0,0,.21.53.53,0,0,0,.26.27L115.6,30l-2.66,6a.58.58,0,0,0-.19,0h-.09l-1.54-7-1.25-5.65.23-.68.15,0a.54.54,0,0,0,.53-.54.54.54,0,0,0-.53-.53.58.58,0,0,0-.19,0l-1-2.37A.55.55,0,0,0,109.37,18.94Zm-.14-.43a.52.52,0,0,0-.39-.17h0a.53.53,0,0,0-.52.41l-.61-.11L103,17.77s0-.05,0-.07a.41.41,0,0,0,0-.16l11.49-4.28a.22.22,0,0,0,0,.08.51.51,0,0,0,.44.24h0ZM114,11.85l.05.06-.4.2,0-.08Zm-.25,0,.19-.11h0Zm-.09.29h0l.43-.22.16.19Zm.63,0,.39.46-.09.1-.89-.52Zm-.63.08.91.53h0l-.93-.39A.4.4,0,0,0,113.62,12.27Zm2.74-.23.5,0-1.33,1.13s0-.06,0-.1a.46.46,0,0,0-.05-.2.31.31,0,0,0,0-.1Zm-.09,0-.86.65a.52.52,0,0,0-.41-.19.48.48,0,0,0-.24.06l-.22-.4Zm-1.56.54,0,0-.36-.43.16,0Zm-.26-.47h-.18l-.17-.2.18-.1Zm3.71-2.29-3.86,1.93,0-.06Zm-3.94,1.9,0,.06-.2.09,0-.05Zm0-.08-.22.12v0l.21-.13ZM109.05,2.7,109,2.49h0l5.16,9.09-.21.14-2.08-2.48Zm2.86,6.7,2,2.34-.34.2a.54.54,0,0,0-.44-.24.53.53,0,0,0-.18,0Zm1.18,3.38a.78.78,0,0,0,.21,0,.55.55,0,0,0,.27-.27l.93.39a.57.57,0,0,0,0,.18.78.78,0,0,0,0,.16L103,17.48h0l9.71-4.86A.53.53,0,0,0,113.09,12.78Zm-4.87-3.16a.57.57,0,0,0,.41-.19l0-.06,4.13,2.42a.55.55,0,0,0-.24.45.5.5,0,0,0,.12.34L103,17.44a.62.62,0,0,0-.09-.12l-.06-.05L108,9.54A.5.5,0,0,0,108.22,9.62ZM102.79,0l5.14,8.62-.09.07a.62.62,0,0,0-.12.19L104,7.68,97.21,5.44a.59.59,0,0,0,0-.14A.55.55,0,0,0,97.11,5ZM96.16,5.26v0a.54.54,0,0,0,1,.21h0l10.43,3.41L92.05,5.25l0-.57Zm-4,3.94,0,1.35-1,.1a.54.54,0,0,0-.47-.46L88.65,7.63,91,5.06l1,.23Zm-.17-4-1-.22.39-.42.53.07Zm0-.72v.1l-.49-.07.15-.16A.49.49,0,0,0,92,4.52Zm-.37-.16-.17.18-.39,0,.47-.25A.54.54,0,0,0,91.59,4.36ZM87.76,1.89l3.72,1.88a.47.47,0,0,0,0,.16l-2.78-.1L86,3.73a.51.51,0,0,0-.11-.31ZM86,3.89l4.14,1L87.51,6.2,85.86,4.14A.51.51,0,0,0,86,3.89Zm.3.91,1.14,1.42-.07,0Zm-6.44,5.81a.55.55,0,0,0,.53-.54h0a.54.54,0,0,0,0-.22l6.51-3.27.51-.26,1.06,1.45L80,17l-.05,0a.44.44,0,0,0-.25-.08Zm0,0-.18,6.22a.54.54,0,0,0-.52.54.57.57,0,0,0,0,.18l-1.58.65a.83.83,0,0,0-.08-.12.51.51,0,0,0-.21-.15l2.44-7.33ZM68,5.08a.55.55,0,0,0-.16-.38h0l3,1.32,8.62,3.86a.58.58,0,0,0,0,.19h0a.53.53,0,0,0,.34.5L77.24,17.9l-.15,0a.5.5,0,0,0-.35.14l-6.68-6.81L64.44,5.48l2.45-.31a.48.48,0,0,0,.15.29.51.51,0,0,0,.38.16A.54.54,0,0,0,68,5.08Zm-.49-.53h0a.52.52,0,0,0-.46.26L63.52,3l-2.45-1.3ZM60.8,1.61l.34.18,5.55,2.94L61.38,2.36l-.65-.66Zm-.11.13.55.56L60.57,2l0-.16A.59.59,0,0,0,60.69,1.74Zm-.35.14.13,0,0,.11-.22-.1ZM60,1.81l.5.23,1.11,3.63L57,6.16,57,6l0,0ZM56.57,7a.59.59,0,0,0,.32-.11L64.6,16.1a.57.57,0,0,0-.17.4.38.38,0,0,0,0,.1L62.7,17,52.24,19.65a.56.56,0,0,0-.3-.34L56.19,7.56l.22-.63A.45.45,0,0,0,56.57,7Zm-.49-.34a.31.31,0,0,0,.05.1v0l0,.06a.45.45,0,0,0,.17.11L51.89,19.29l-.16,0a.52.52,0,0,0-.31.1l-6.63-8.23a.53.53,0,0,0,.17-.4.77.77,0,0,0,0-.15Zm-.3-.27.26,0v.12l-.77.07-7.49.69Zm-.27.19.53,0s0,0,0,.07L45,10.5l-.11,0a.5.5,0,0,0-.19-.24l-.09-.05,1-2.8Zm-9.88.84-1.09.12a.5.5,0,0,0,0-.13.33.33,0,0,0-.07-.13l1.86-1.68ZM48.32.54,48,1.08l.24-.64ZM48.09.16a.43.43,0,0,0,.09.23l-.34.91L44.53,6.69Zm-.34,1.39L46.33,5.46,44.39,7.2l-.07-.06ZM44.11,8.11a.55.55,0,0,0,.44-.53v0l1.06-.1-1,2.77-.16,0h0Zm.32,3.17a.52.52,0,0,0,.31-.1l6.63,8.22-.07.08L38.17,10.62a.48.48,0,0,0,.07-.21h.21l5.45.32h0A.49.49,0,0,0,44,11,.51.51,0,0,0,44.43,11.28ZM37.09,6l.13-.13L42.1,9.2,44,10.47a.71.71,0,0,0-.07.22l-5.65-.34h0a.56.56,0,0,0-.33-.5.65.65,0,0,0-.21,0h-.07l0-.21-.68-3.52A.51.51,0,0,0,37.09,6Zm-.3.09h.08l.71,3.72h0a.53.53,0,0,0-.41.52.55.55,0,0,0,.16.39l-2,2.34-4.34,5-.28-.66,3-5.85,2.86-5.52A.54.54,0,0,0,36.79,6.11ZM25.6,5.56a.53.53,0,0,0,.23-.39l10.43.41a.53.53,0,0,0,.26.45l-3.93,7.6-1.93,3.74L25.53,5.6Zm-.11.06,5.14,11.81-.5,1-2-2.79-2.66-10ZM24,4.4l.53.31-.74-.37,0-.08Zm-.33.5a.51.51,0,0,0,.16-.38s0-.07,0-.11l1,.49a.54.54,0,0,0,0,.22.54.54,0,0,0,.54.54l.11,0L28,15.47,21.09,5.78l1.78-1a.51.51,0,0,0,.45.26A.53.53,0,0,0,23.7,4.9ZM23,4.09l-.16-.19.1.06.08.12ZM23,4l.06,0,0,0Zm-.11-.59a.68.68,0,0,0,0-.14l.57-.17L23.37,4l-.5-.3A.48.48,0,0,0,22.93,3.41Zm.39.58h0l-.15,0L23,3.91l-.12-.2Zm-.51-.25.08.13-.13-.07h0Zm-.1.1h0l.24.29h0l-.28-.27Zm-.32.1a.6.6,0,0,0,.24,0l.29.28-.05.06-.49-.29Zm-.49-.73a.32.32,0,0,0,0,.14L19.78,2.29,19,1.89Zm0,.19h0a.57.57,0,0,0,.08.28L18.7,1.8ZM18.33,1.64l3.72,2.17a.42.42,0,0,0,.14.09h0l.63.37a.48.48,0,0,0-.06.24.6.6,0,0,0,.05.24l-1.78,1-2.85-4A.74.74,0,0,0,18.33,1.64Zm-.16.16,2.84,4-1.68.92L18,1.86A.31.31,0,0,0,18.17,1.8Zm-.63,0a.51.51,0,0,0,.34.13H18l1.29,4.84-1.75,1-9.2,5.07-.57-.33ZM7.72,12.46l.55.32-1.06.59-.09-.26Zm-.29-.17.24.14-.57.62,0-.16Zm-.31-.18.26.15L7,12.82l-.17-.5A.54.54,0,0,0,7.12,12.11Zm-.49.24h0a.32.32,0,0,0,.14,0l.18.55-.3.48a.49.49,0,0,0-.17-.06l.09-.75Zm0,0-.11.94h0a.53.53,0,0,0-.53.53H5.57l.86-1.53ZM1.65,13.73,5,12.47l-3.3,1.35Zm3.64.12L1.76,14l0-.13,4.46-1.82a.51.51,0,0,0,.19.22L5.5,13.84ZM2.83,18.7l2.71-4.81.36,0a.53.53,0,0,0,.53.49.52.52,0,0,0,.47-.29l.56.25,3.65,11.1a.53.53,0,0,0-.29.26L5.08,23.22,1.69,21.76a.58.58,0,0,0,0-.19.55.55,0,0,0-.16-.38l-.09-.07ZM1.18,22.11h0a.51.51,0,0,0,.47-.3l9.14,3.92a.58.58,0,0,0,0,.19.37.37,0,0,0,0,.11l-4,1.11L.71,28.85ZM.7,28.91l10.1-2.82a.53.53,0,0,0,.93.15l.84.59L.7,29Zm0,.11,11.94-2.15,4.29,3-2.43,9.43L9.28,33.7a.56.56,0,0,0,.15-.37.53.53,0,0,0-.24-.45.49.49,0,0,0-.3-.09.54.54,0,0,0-.47.29L.65,29.6Zm0-.1v0l-.45.08Zm-.48.26a.15.15,0,0,0,0-.07L.64,29l0,.55-.47-.21A.41.41,0,0,0,.17,29.18Zm-.1.31a.25.25,0,0,0,0-.07l.49.22,0,.25Zm.32,9.35,0,0,2.51-1.6,1.51-1Zm-.09-.1A.65.65,0,0,0,0,38.62L.63,30l6,4.75Zm6.35-4-6-4.78,0-.27L8.4,33.13a.45.45,0,0,0,0,.2.59.59,0,0,0,.07.26Zm.08.06,1.73-1.13.13.13-1,1.68ZM5.3,39.34l2.29-3.81,6.53,5.18-.52,2h-.11a.53.53,0,0,0-.53.5L5.1,40.6a.32.32,0,0,0,0-.14A.53.53,0,0,0,4.89,40Z" style="mix-blend-mode:color-dodge;fill:url(#linear-gradient-3)"/><polygon points="0 3.23 9.95 0 9.77 0 0 3.18 0 3.23" style="mix-blend-mode:color-dodge;fill:url(#linear-gradient-4)"/><polygon points="120 1.68 117.73 0 117.64 0 120 1.74 120 1.68" style="mix-blend-mode:color-dodge;fill:url(#radial-gradient-6)"/><polygon points="120 2.19 113.36 0 113.19 0 120 2.25 120 2.19" style="mix-blend-mode:color-dodge;fill:url(#radial-gradient-7)"/><path d="M8,54.93,3.4,60h.07L8,55l.15.75L6.78,60h0l1.38-4.16L9,60h.06l-.19-.93-.66-3.33.34-1,.14,0h0L9.34,60H9.4l-.59-5.27a.54.54,0,0,0,.45-.53.54.54,0,0,0-.54-.54h0a.52.52,0,0,0-.38.17l-.19-.16a.5.5,0,0,0,.12-.33.52.52,0,0,0-.19-.41l1.26-1.64L9.62,60h.05l-.26-8,0-.76.71-.93,7,9.71h.07l-7.06-9.75L11,49.18l4.58.06a.54.54,0,0,0,.54.51h0l.13,0,3.15,9.87-1,.4h.14l.86-.34h0l.11.35h.06l-.12-.37.69-.28.05.39-.37.26h.09l.28-.2,0,.2h0l0-.24.07,0,0,.28h.05l-.05-.32.91-.65a.46.46,0,0,0,.24.17l-.23.8h.05l.23-.78h.07l-.05.77h.13v-.77a.54.54,0,0,0,.35-.15.55.55,0,0,0,.16-.38.49.49,0,0,0,0-.12L25.31,60h.13l-3.28-1.49a.53.53,0,0,0-.5-.35.41.41,0,0,0-.19,0l-1-.48,0-.09v0L32,59l.7,1h.06l-.69-1,7.27.88-.06.1h.06l.06-.09.21,0s0,0,0,0v0h1.06v0a.52.52,0,0,0,0-.21.53.53,0,0,0-.49-.32.54.54,0,0,0-.53.44l-.18,0,7.63-12.1.08,0-1.08,2.31L41.42,60h.06l5.71-12.21,4.31,1,1.76.86-.46,5.71-4.27,2.36-2.44,1.34L46,59a.54.54,0,0,0-.51.38l-1,.58h.11l.91-.5s0,0,0,.08a.54.54,0,0,0,.05.21L45,60h.12l.35-.17a.58.58,0,0,0,.14.17h.66a.55.55,0,0,0,.2-.42v-.06l5.57-.87v0L47.67,60h.18l4.22-1.28a0,0,0,0,1,0,0,.54.54,0,0,0,.49.33h0l0,.92h.06l0-.93A.51.51,0,0,0,53,58.9L54.28,60h.08L53,58.86a.52.52,0,0,0,.11-.32.78.78,0,0,0,0-.21.91.91,0,0,0-.11-.16l.09-.09,4.15-4.39,2,6.31h0l-1.61-5-.44-1.36,1-1a.52.52,0,0,0,.35.13h0a.54.54,0,0,0,0-1.07h0a.51.51,0,0,0-.22,0l-.4-.75-1.1-2.13,6.35-5.18,6.52.38,2,.11h0a.53.53,0,0,0,.27.46L67,54.15,64,60h.06L72,44.65a.53.53,0,0,0,.49,0L79.74,56l.05.28a.62.62,0,0,0-.25.14.56.56,0,0,0-.15.38.53.53,0,0,0,.21.43l-.24.35-11.47,2a.54.54,0,0,0-.52-.42.46.46,0,0,0-.21.05.52.52,0,0,0-.23.79h.88a.53.53,0,0,0,.09-.3v-.06l3.18-.56,8.24-1.44-.27.39-4.66,2h.14L79,58.11,77.7,60h.07l.32-.47,1-1.46.91-.39,0,.4L78.49,60h.07l1.49-1.84h0L80.27,60h0l-.22-1.9.23-.29a.52.52,0,0,0,.32.11.54.54,0,0,0,.53-.54h0a.54.54,0,0,0-.53-.54h-.1l-.07-.28,4.24-1.94a.55.55,0,0,0,.19.21L82,60h.06L85,54.87a.61.61,0,0,0,.24.06.54.54,0,0,0,.5-.37l8.67,2.38,7.42,2a.5.5,0,0,0,0,.12.43.43,0,0,0,0,0h0L96.48,60h.34l5-.79a.53.53,0,0,0,.23.33l-.27.46h.06l.26-.43a.51.51,0,0,0,.25.06h.09l.08.38h.06l-.09-.39.12,0,.28.44h.06l-.29-.47.07-.05a.56.56,0,0,0,.15-.38.77.77,0,0,0,0-.15l5.38-1.82v0a.53.53,0,0,0,.5.32h0L109,60h0l-.3-2.53a.54.54,0,0,0,.45-.53.68.68,0,0,0,0-.14l4.19-1.3.75.75a.56.56,0,0,0-.15.37h0a.59.59,0,0,0,.11.32L112.82,60h.06l1.27-3a.52.52,0,0,0,.22.14L113.6,60h.06l.76-2.86h.12a.53.53,0,0,0,.52-.41l4.94.9v-.06l-.38-.07-4.55-.83v0l4.07-.09.86.3v-.08l-.62-.23H120v-.05h-.76l-2.16-.77L120,54.63v-.05l-3,1.1-.69-.25L116,55.3l4-3.87v-.08l-4.11,3.93-.41-.15a.77.77,0,0,0,0-.15.54.54,0,0,0-.53-.54h0a.53.53,0,0,0-.5.35l-.86-.29-4-8.79a.54.54,0,0,0,.29-.47.59.59,0,0,0,0-.14L120,41.81v-.06L109.88,45a.94.94,0,0,0-.12-.18L120,34V33.9L109.72,44.83l0,0,8.75-13.92.26.15a.48.48,0,0,0-.06.24h0a.54.54,0,1,0,1.07,0h0a.45.45,0,0,0,0-.16L120,31V30.9l-.35.14a.53.53,0,0,0-.2-.22l.55-1v-.11l-.6,1.06-.15-.05.12-.94h0a.53.53,0,0,0,.54-.53H120v-.06h-.07a.53.53,0,0,0-.53-.49.54.54,0,0,0-.47.29l-.56-.25-3.65-11.1a.53.53,0,0,0,.29-.26l5,2.14v-.06l-5-2.13a.58.58,0,0,0,0-.19.36.36,0,0,0,0-.11L119,16l1-.28v-.05L115,17a.53.53,0,0,0-.51-.36.53.53,0,0,0-.42.21l-.85-.59L120,15.05V15l-6.8,1.22-4.29-3,2.44-9.43,5.21,5.58a.53.53,0,0,0-.16.38.55.55,0,0,0,.24.44.53.53,0,0,0,.3.09.54.54,0,0,0,.48-.29L120,11.17v-.06L117.44,10a.63.63,0,0,0,0-.19.5.5,0,0,0-.07-.27l1.78-1.12L120,9V9l-.77-.61.77-.49V7.74l-.84.55-.88-.7L120,4.74v-.1l-1.76,2.92-6.52-5.18.51-2h.11a.52.52,0,0,0,.51-.39h-1s0,0,0,0l-2,.84L108.72,0h-.08l1.14.91-.76.32L107.87,0h-.07L109,1.25l-2.89,1.22L105.76,0h-.05L106,2.49,99.71,5.15a.5.5,0,0,0-.2-.23l.3-.56L102.15,0h-.06L99.46,4.9a.46.46,0,0,0-.23-.06h0a.54.54,0,0,0-.49.33l-8.89-3.3-1.23-.46L91.71.24,92.34,0h-.16L88.55,1.38,87,.8l.59-.8H87.5l-.57.78L86,.42a.9.9,0,0,0,0-.16.46.46,0,0,0,0-.21s0,0,0,0H85a.55.55,0,0,0-.06.26.52.52,0,0,0,0,.21.27.27,0,0,0,.06.1l-.17.14L84.5,0h-.06l.36.74L75.37,8.3a.51.51,0,0,0-.21-.15l.67-2.07,2-6.08h-.06L75.11,8.14l-.07,0L75.75.93h0a.54.54,0,0,0,.54-.54A.53.53,0,0,0,76.13,0h-.72l-.08.09L75.18,0h-.11l.23.14a.48.48,0,0,0-.06.18L72,0l0,0H72V0L71.7,0h-.6L72,.08l.26.76L62.71,2.11l-.19-.75L65.66,0h-.13l-3,1.3L62.18,0h0l.33,1.33-2.28,1a.45.45,0,0,0-.16-.2L61.42,0h-.1L60,1.88l.42-1L61.22,0h-.07L60.5.72,60.8,0h0l-.36.84-.46.52L60.15,0h0l-.24,1.43-.72.8a.57.57,0,0,0-.19-.1L59.44,0h-.06L58.9,2.12h-.06l0-2.11h-.06V.61l0,1.5a.6.6,0,0,0-.37.16L55.83,0h-.08l2.06,1.81.58.51a.53.53,0,0,0-.11.21l-7.11-1.2-6.1-1s0,0,0-.06h0L48.86,0H48L45.07.18A1.21,1.21,0,0,0,45,0h-1A.48.48,0,0,0,44,.24h0a.54.54,0,0,0,.06.25l-1.32.76-3.6,2.1a.58.58,0,0,0-.27-.22L39.82,0h0l-.94,3.12h0L39.19,0h0l-.4,3.11h-.07L38.32,0h-.06l.35,3.11a.54.54,0,0,0-.21.08.55.55,0,0,0-.24.45s0,0,0,0l-6.26.91L29.52,5a.52.52,0,0,0-.06-.16L37.05,0H37L34,1.87,29.44,4.75a.57.57,0,0,0-.24-.19l1.07-2.1L36.38,0h-.14l-.81.33L30.31,2.39l.92-1.8a.51.51,0,0,0,.22.05A.54.54,0,0,0,32,.1h0v0L32.44,0H30.92s0,.07,0,.1h0a.13.13,0,0,0,0,.06L21.3,1.65l-6.13,1A.51.51,0,0,0,15,2.31L16.9,0h-.07L15,2.28a.49.49,0,0,0-.31-.11h0L14.53.69A.53.53,0,0,0,15,.27a.36.36,0,0,0,0-.11A.9.9,0,0,0,15,0H14a.43.43,0,0,1,0,.05.11.11,0,0,0,0,.05L12.45,0h-.8l2.22.15L6.73.33,5.55.36,4.15,0H3.94L5.35.36,3.11.42,2.42,0h-.1L3,.42,1.93.45a.85.85,0,0,0,0-.17A.49.49,0,0,0,1.68,0l0,0H1.26V1A.34.34,0,0,0,1.4,1a.57.57,0,0,0,.18,0L3.52,5.66a.51.51,0,0,0-.23.23l-2-1V5l2,1s0,0,0,0l-2-.62V5.4l2,.61a.32.32,0,0,0,0,.14v.07l-2,.37v.06l2-.38,0,.08,0,.09-2,1.49V8L3.34,6.48a.53.53,0,0,0,.41.2.54.54,0,0,0,.54-.53.46.46,0,0,0,0-.21.52.52,0,0,0-.49-.33.41.41,0,0,0-.16,0L1.79.85A.64.64,0,0,0,1.93.5l1.16,0,2.14,1.3,7.38,4.51a.51.51,0,0,0-.06.25.34.34,0,0,0,0,.1L1.26,9.38v.06L12.57,6.68a.55.55,0,0,0,.27.33l-7,15.8a.41.41,0,0,0-.19,0,.48.48,0,0,0-.24.06l-.67-1.2L1.26,15.35v.11l.58,1,3.55,6.36a.54.54,0,0,0-.21.26L1.26,21.78v0l3.91,1.33a.4.4,0,0,0,0,.15.54.54,0,0,0,.05.21.47.47,0,0,0,0,.1l-4,3.16v.06l4-3.18a.54.54,0,0,0,.32.18l-.7,7.52-3.64.25v.05l3.64-.25-.27,2.82h0a.56.56,0,0,0-.38.15.61.61,0,0,0-.13.22l-2.84-.76v.06l.11,0,2.72.72a.52.52,0,0,0,0,.11.54.54,0,0,0,.18.4l-3,1.52v.07l3-1.55a.58.58,0,0,0,.32.1A.53.53,0,0,0,5,35.14a.55.55,0,0,0,.15-.38h0l6.47-3.3,0,0L1.26,37.81v.07l10.39-6.34,5.17,9.09a.56.56,0,0,0-.25.44l-1.71,0-13.6.37v0l15.31-.42a.55.55,0,0,0,.14.33L9.65,48.73a.75.75,0,0,0-.15-.09.45.45,0,0,0-.2,0,.54.54,0,0,0-.54.54.51.51,0,0,0,.24.44l.08.05L7.9,52.83l-.16,0a.51.51,0,0,0-.38.16L1.26,47.4v.08L7.32,53a.51.51,0,0,0-.09.18l-6-1.57v0l6,1.57a.37.37,0,0,0,0,.11.55.55,0,0,0,.28.47L1.26,52V52L7.83,54l.14.71L1.26,59.23v.06L8,54.73ZM3.19,4.73,2.41,2.85,1.62,1A.57.57,0,0,0,1.75.89Zm7.73,44.4h-.84l.89,0Zm4.61,0-4.54,0,0-.07,4.7-.27A.55.55,0,0,0,15.53,49.18Zm3.87,10.4-3.15-9.86h0l2.38,5.13,1,2.21a.53.53,0,0,0-.27.36.45.45,0,0,0,0,.11.54.54,0,0,0,.53.54h0l.15,1.23Zm-2.09-19a.46.46,0,0,0-.21,0l-.18,0L14.12,34l8.17,9.74-.85.75-3.9-3.1a.52.52,0,0,0,.1-.31A.54.54,0,0,0,17.31,40.59ZM9,31.08,10.31,30a.31.31,0,0,0,0,.1.52.52,0,0,0,0,.21.41.41,0,0,0,.05.09l-.92.7Zm.41,0-3.5,2.65-.55.41,3.57-3Zm1-.72a.53.53,0,0,0,.41.19.48.48,0,0,0,.24-.06l.23.4L9.57,31ZM21,6.35l7.52-1.18a.54.54,0,0,0,.21.31L26.46,9.83a.54.54,0,0,0-.22-.05.55.55,0,0,0-.43.22L20.88,6.68A.61.61,0,0,0,21,6.4ZM35,18.54l-.75,6-.76-6.27a.49.49,0,0,0,.21-.08.55.55,0,0,0,.22-.35l.64.08V18A.55.55,0,0,0,35,18.54Zm28.26-5.33.09,0-.2,1-7-2.28a.09.09,0,0,0,0,0l2.24.24,4.59.48v0A.53.53,0,0,0,63.27,13.21ZM74.45,8.8,73.92,9l-.35.11a.56.56,0,0,0-.31-.31l.8-2.66.71,2a.51.51,0,0,0-.34.49A.77.77,0,0,0,74.45,8.8Zm3.85,3.13-2.19,1.91s0,0,0,0a.51.51,0,0,0-.34-.13.44.44,0,0,0-.23.06l-.6-1.11L73.35,9.75a.54.54,0,0,0,.21-.24l4.65,1.91a.52.52,0,0,0,0,.18A.5.5,0,0,0,78.3,11.93Zm7-9.06.06,0,0,0a.56.56,0,0,0,.3.09.53.53,0,0,0,.51-.4l1.34.28,5.16,6.43,2.43,3-6.43,0a.37.37,0,0,0,0-.18.53.53,0,0,0-1,.2.61.61,0,0,0,0,.15.3.3,0,0,0,0,.1l-1.57.89-6.9-1.78a.45.45,0,0,0,0-.11.53.53,0,0,0-.24-.45l6-10,.46.92a.54.54,0,0,0-.28.47A.53.53,0,0,0,85.32,2.87Zm.88-.54.67-.26.63.78-1.28-.27a.28.28,0,0,0,0-.09A.41.41,0,0,0,86.2,2.33Zm0-.05a.52.52,0,0,0-.12-.17l0,0,.41-.55.4.5Zm31.89,28.39L108.3,41.33a.53.53,0,0,0-.34-.13h-.12l-1.28-4.84,1.74-1,9.21-5.07Zm-.52-.36,1.07-.59.08.26-.6.65Zm-8.18,15.46h.12l2.26,7.71-.08,0-1.76-2.87-6.37-10.42a.52.52,0,0,0,.35-.26l1.65,1.6L109,44.88a.52.52,0,0,0-.14.36A.54.54,0,0,0,109.38,45.77Zm-7.91,5a.5.5,0,0,0,0-.12h0a.54.54,0,0,0-.39-.52l2.25-9.95h.14l8.14,13.31-.07.06a.63.63,0,0,0-.13.2Zm10,3v0l-2.48-.76Zm-10.83-2.77-1.15,1.37-.13-.07,2.31-7L101,50.14h0a.54.54,0,0,0-.53.54h0A.56.56,0,0,0,100.59,51.07Zm-16-4.92,3.73-1.68a.52.52,0,0,0,.69.25.46.46,0,0,0,.18-.13l9.55,8a.35.35,0,0,0,0,.08l-14.1-6.1a.62.62,0,0,0,0-.38Zm-7.33-3.69a.54.54,0,0,0-.53.54.28.28,0,0,0,0,.09l-.89.21L72.73,44a.57.57,0,0,0-.1-.19l6.79-6.12-1.11,3-.37,1-.47.77A.56.56,0,0,0,77.21,42.46Zm.11,1.24h0s0,0,0,0v0Zm0-.16,0,.14-.08,0v-.13h.11ZM69.8,36.65l.77-.07,7.49-.69-8,.85-.26,0s0-.06,0-.1Zm.52-.1-.53.05a.19.19,0,0,0,0-.08l11-3.93.1,0a.52.52,0,0,0,.2.24.19.19,0,0,0,.09.05l-1,2.8Zm-5,4.5L64.2,37.42l4.6-.49a.34.34,0,0,0,.09.12l0,0-3.12,4.2Zm.24.17h0l-.13,0,0-.11ZM58.08,52.45,57,53l-.58-1.8,1.61.79a.47.47,0,0,0,0,.44Zm-1.64-1.3-.1-.29L58.09,52h0Zm-.12-.37v0l.49.33Zm0,.34-1-.48,0,0a.53.53,0,0,0,.23-.19l.6.38Zm-1.48-1.68h0a.52.52,0,0,0-.26-.46l-1.1-2,.27-3.29h.09l1.21,6-.1,0Zm.06.23h0l-.06,0,0,0a.44.44,0,0,0,.06-.16Zm-.22.64-1.41-.69,0-.4.48.11v.1a.53.53,0,0,0,.53.53.54.54,0,0,0,.4-.18l0,0a.58.58,0,0,0-.1.32A.52.52,0,0,0,54.73,50.31Zm-7.13-4a.52.52,0,0,0-.44.24.46.46,0,0,0-.08.19l-12.59-2v-.06a.58.58,0,0,0-.1-.32l1.78-1.5,1.92-1.61,15.23,7.67V49L48.1,47a.41.41,0,0,0,0-.16A.54.54,0,0,0,47.6,46.31Zm-31,2.88,8.92-.93a.54.54,0,0,0,1.07-.08.55.55,0,0,0-.36-.51L29,38.31h0L26.79,51h-.07a.53.53,0,0,0-.51.4l-2.83-.6L16.59,49.3a.28.28,0,0,0,0-.09Zm-5.29-18.9h0l.93.39a.8.8,0,0,0,0,.15Zm.86.57-.58,0-.39-.46a.39.39,0,0,0,.08-.1Zm-.84-.63a.58.58,0,0,0,0-.18.41.41,0,0,0,0-.16l11.49-4.28h0l-9.71,4.86a.51.51,0,0,0-.38-.16.65.65,0,0,0-.2,0,.61.61,0,0,0-.28.27Zm6-6.44.91-1.36,4.63,2.72a.61.61,0,0,0-.05.12l-5.28-1a.2.2,0,0,0,0-.07A.54.54,0,0,0,17.31,23.79Zm8.41-13.6a.53.53,0,0,0,0,.13h0a.54.54,0,0,0,.13.35l-.24.24L24.33,9.79Zm-1.49-.48L21.14,7l4.64,3.05a.36.36,0,0,0,0,.09Zm8.65,8.14-2.67.46-10.45,1.8,6-9,6.81,6,.43.37a.55.55,0,0,0-.12.33S32.88,17.83,32.88,17.85ZM25.74,11l-.1-.08.24-.24,0,0Zm-.13,0,.1.09-6,9.05-3.44.6-.09-.39ZM16.2,20.72l-.09,0a.49.49,0,0,0-.08-.18v0l0,0,.13-.13Zm-.08.14v-.07h.09l.1.47-.25-.15A.48.48,0,0,0,16.12,20.86Zm.15-.05v0l3.39-.59L18.43,22l-.23.35-1.83-1.07Zm1.9,1.59-.9,1.36a.5.5,0,0,0-.27-.08h-.09l-.52-2.33Zm-4.89,8.45a.58.58,0,0,0-.12-.34l9.7-4.85a.44.44,0,0,0,.08.11.18.18,0,0,0,.07.05l-5.13,7.73a.5.5,0,0,0-.27-.08.55.55,0,0,0-.4.19l-.05.06L13,31.3A.53.53,0,0,0,13.28,30.85ZM35.64,18,49,17.13a.53.53,0,0,0,.5.36.51.51,0,0,0,.38-.16.46.46,0,0,0,.15-.27l2.82-.18-3,5.65-3.3,2.83-.09-.07a.54.54,0,0,0-.3-.1.56.56,0,0,0-.42.21l-10.2-7.11a.47.47,0,0,0,.09-.28Zm20.64-1.73.08.05a.6.6,0,0,0-.07.27L53,16.76l.08-.15Zm-3.16.28.93-1.74L55.79,16l.42.27Zm12.29-1.3L63,15.51l.22-1.15,2.23.73a.59.59,0,0,0,0,.14Zm0,.06a.54.54,0,0,0,.53.45.49.49,0,0,0,.38-.17l7.38,7.34a.52.52,0,0,0-.14.36h0a.34.34,0,0,0,0,.1L66.35,25.2l-5,1.24a.51.51,0,0,0-.38-.36l.91-4.88L63,15.57Zm9.78-1.14s0,0,0,0a.53.53,0,0,0,.16.38.51.51,0,0,0,.26.14l-1.42,7.93,0,.1H74.1a.48.48,0,0,0-.35.14l-2.48-2.46-4.9-4.88a.47.47,0,0,0,.07-.12.45.45,0,0,0,0-.2.52.52,0,0,0-.11-.33l1.9-1.57Zm-6.87-.89,4.35-3.63a.54.54,0,0,0,.4.18.6.6,0,0,0,.23-.06L75,12.83l.5.92a.54.54,0,0,0-.25.37Zm10,30.24L88.59,37.8a.54.54,0,0,0,.4.25l-.25,5.64a.65.65,0,0,0-.2,0,.57.57,0,0,0-.33.47l-8.54,0Zm3.12,1.59,2.09,1a0,0,0,0,0,0,0l-2.45-.76L77.6,44.32a.36.36,0,0,0,0-.1h2ZM78,41.79l3.32-5.39-3.57,6.53a.63.63,0,0,0-.08-.23Zm-.37.86a.47.47,0,0,0-.1-.1l.33-.54Zm.13.39,3.84-7a.46.46,0,0,0,.23.06.54.54,0,0,0,0-1.08h0l-.28-2.11a.52.52,0,0,0,.33-.2l6.76,4.57a.54.54,0,0,0-.08.28.46.46,0,0,0,.06.23L78.28,43.49l-.57-.28A.85.85,0,0,0,77.75,43Zm3.54-7.5-1.06.09,1-2.77.15,0h0l.28,2.1a.55.55,0,0,0-.44.53ZM92.68,20.29l-7.83-5.48,0-.07,0-.1,5,.78Zm-3.31-5.9.46.12.76,1-.65-.11Zm3.38,6,.21.38a.61.61,0,0,0-.21.24.71.71,0,0,0,0,.21.54.54,0,0,0,.54.54.65.65,0,0,0,.19,0L94.84,25l-6.39,7.37-.12-.07a.46.46,0,0,0-.21,0H88L84.53,15.05a.57.57,0,0,0,.29-.2Zm.1.08.32.22-.16,0Zm.92.64.17.12h-.16A.41.41,0,0,0,93.77,21.11Zm0,.16.24,0,2.07,1.44h0l-2.36-1.29s0,0,0,0A.75.75,0,0,0,93.78,21.27ZM88.49,32.35l2-2.34,4.34-5,.29.66-3,5.85L89.27,37A.59.59,0,0,0,89,37H89l-.72-3.72h0a.55.55,0,0,0,.41-.52A.56.56,0,0,0,88.49,32.35ZM94.9,25l.54-.63.23.32-.49,1Zm-1.66,4.5,1.94-3.74,5.12,11.77-.06,0a.5.5,0,0,0-.23.39l-10.43-.41a.52.52,0,0,0-.27-.45Zm2-3.8.5-1,2,2.79,2.66,10h0Zm.52-1,.59-1.14a.44.44,0,0,0,.22.05h.12l.64,2.4.37,1.41Zm0-.05-.22-.3.74-.85.06,0Zm-1.58-3.3,1.08.06,1,1.26-.08.08Zm1.94,1.5A.56.56,0,0,0,96,23a.51.51,0,0,0,.16.38l-.72.84-1.87-2.6a.53.53,0,0,0,.12-.14Zm-.65,1.49-.53.62-1.4-3.2.06,0Zm-7.29,9h.08l0,.21L88.92,37a.56.56,0,0,0-.18.07.74.74,0,0,0-.12.13l-4.89-3.31-1.87-1.27a.52.52,0,0,0,.07-.22l5.66.34h0a.54.54,0,0,0,.32.5A.78.78,0,0,0,88.12,33.28Zm-.53-.6h-.21l-5.44-.32h0a.51.51,0,0,0-.09-.3.53.53,0,0,0-.45-.24.57.57,0,0,0-.31.1l-6.63-8.22.07-.08,13.14,8.86A.49.49,0,0,0,87.59,32.68Zm1.3,8.85.16-3.48a.54.54,0,0,0,.37-.15.53.53,0,0,0,.15-.33l5.84.23L100,38a.54.54,0,0,0,0,.22l-2,1.08L89.21,44a.52.52,0,0,0-.41-.26Zm3.89.59,7.3-3.88a.53.53,0,0,0,.46.27.78.78,0,0,0,.21,0,.64.64,0,0,0,.23-.2l1.15.67a.45.45,0,0,0,.24.14l0,0-.12.9-13,4,0,0Zm8.5-3.74.73.37a.2.2,0,0,0,0,.08l-.24-.14Zm1.57.8.13.2-.47-.27h0a.33.33,0,0,0,.15,0Zm-.12-.12,0,0,0,.05Zm.14-.1h0l.28.27,0,0h0Zm.21.33-.06.06-.08-.13.14.07Zm-.09-.1-.1,0-.08-.13h0Zm0,.25a.51.51,0,0,0-.06.25.62.62,0,0,0,0,.13l-.56.17.11-.85Zm-.63.66v-.05l.59-.18a.52.52,0,0,0,.2.26l.11,0-1.51,4.6Zm.87-.9-.3-.28,0-.06.5.29h0A.59.59,0,0,0,103.21,39.2Zm-.7-1.17a.55.55,0,0,0-.38.16.56.56,0,0,0-.15.38.41.41,0,0,0,0,.11l-1-.49a.78.78,0,0,0,0-.22.54.54,0,0,0-.53-.54l-.12,0L97.8,27.62l7,9.69-1.78,1A.53.53,0,0,0,102.51,38Zm-.41-4.51-4.34-6.05-1.05-3.94a.54.54,0,0,0-.16-1.05h0a.51.51,0,0,0-.3.1l-1-1.23,1.72.09,5.1.26h0a.54.54,0,0,0,.54.53h.11l3.75,14.12-1.7.94Zm.53-12.36a.53.53,0,0,0-.53.48l-6.87-.35-.66-.83L103.63,15l2.09,1.09-2.08,3.73-.78,1.39A.46.46,0,0,0,102.63,21.16Zm-7.47.13L94,21.23l-.29-.2,0-.06.8-.49Zm-1.47-.37a.54.54,0,0,0-.44-.24l-.46-.32L90,15.43l.67.11.72.91,3.13,4Zm-3.77-6.39,8.26,2.14-7.51-1.18Zm0-.07-1.34-1.7a.7.7,0,0,0,.13-.17l4.91,2.06,4.64,2v0Zm-.09,0-.44-.12-.87-1.51,0,0Zm-.52-.14-3.05-.79,1.52-.87a.54.54,0,0,0,.45.25.48.48,0,0,0,.24-.06Zm0,0,.07,0,.57,1-5-.78s0,0,0-.05a.48.48,0,0,0-.06-.24l1.2-.69.08,0Zm-4.39-.11a.53.53,0,0,0-.89,0l0,0-1.62-.84-3.11-1.6a.14.14,0,0,0,0-.06l6.85,1.77Zm-.45.82h.08l1.8,8.78L88,32.22l-.14.06L76.05,14.64a.56.56,0,0,0,.21-.38h0l7.59.27A.53.53,0,0,0,84.39,15.06ZM87.8,32.31l-.11.11-1.46-1L74.56,23.56a.5.5,0,0,0,.08-.27h0a.55.55,0,0,0-.42-.53l1.44-8h.07a.5.5,0,0,0,.27-.08ZM66.34,14.86l-.08-.07,1-1.58.89.11Zm-.12-.09a.5.5,0,0,0-.27-.08h-.11l0-.14L65.41,13l1.84.22ZM59,38l2.54-.27,2.87,2.92-2.71-1.21L58.92,38.2A.58.58,0,0,0,59,38ZM55.61,48.59l-1.61-5h0L56,47.28Zm0,.19.26.79-.24.2a.55.55,0,0,0-.24-.15Zm-1.8-6.21a.54.54,0,0,0-.53.54.53.53,0,0,0,.16.38.54.54,0,0,0,.3.15l-.25,3.21-4-7.31-3.29-6.06a.6.6,0,0,0,.2-.22L58,38.43l-3.85,4.26A.56.56,0,0,0,53.81,42.57ZM53.37,49V49l.5.25h0Zm.48.24v0l-.5-.11v-.1Zm-.47-.36.09-1.16L54.09,49a.52.52,0,0,0-.19.2Zm0-1.35L47,35l4.58,8.44L53.48,47Zm0,.09.05-.61,1,1.9a.41.41,0,0,0-.19,0h-.12l-.1,0Zm-2.83-5.41,2.77,5.42-.1,1.23L38.13,41.23l1.81-1.52a.56.56,0,0,0,.39.18.54.54,0,0,0,.53-.54.55.55,0,0,0-.33-.5.65.65,0,0,0-.2,0,.53.53,0,0,0-.3.09l-1.54-2.09,7-3.53a.52.52,0,0,0,.46.28.51.51,0,0,0,.22-.05Zm-22-4.65h0L18.22,34.18l15.57,3.66,0,.57-4.14-.58v0a.54.54,0,0,0-.54-.54A.52.52,0,0,0,28.65,37.58Zm.31.71-2.78,9.37-.13,0a.55.55,0,0,0-.25.07l-2.73-4.58,5.69-5A.46.46,0,0,0,29,38.29Zm5.4-6.44-.5-.61,0,0,.88.81,0,0Zm.35.27a.54.54,0,0,0-.05.11L34.45,32Zm-.06.19v.08l-1,.1,0-1,.76.44Zm0,.13a.54.54,0,0,0,.48.46l2,2.56L34.82,38l-1-.23-.17-3.91-.06-1.35Zm10.82.8L39,36.51l-.51.26-1.07-1.45,8.44-9.18,0,0a.45.45,0,0,0,.26.08L46,32.48a.54.54,0,0,0-.52.54h0A.78.78,0,0,0,45.47,33.24Zm-9.87,5L34.88,38l2.34-2.53,1.07,1.34Zm0,.06,4.15,1L35,38.58Zm-.08,0-.63.31-.43-.06.38-.41Zm-1.12.24-.54-.07,0-.57.94.22Zm0,0-.14.16a.51.51,0,0,0-.34-.13v-.1Zm.07,0,.39.06-.48.24a.83.83,0,0,0-.08-.12Zm.48.07,4.9.68h0l-1.89-.07L34.4,39.1a.78.78,0,0,0,0-.21Zm.78-.39,2.65-1.34L40,39a.5.5,0,0,0-.15.25Zm2.7-1.36.06,0,1.07,1.45Zm0-.08-.07,0-1.09-1.36.1-.11Zm-1.19-1.37-2-2.52a.47.47,0,0,0,.28-.09l1.84,2.5ZM29.63,38a.76.76,0,0,0,0-.11l4.14.58v.11a.53.53,0,0,0-.49.53.52.52,0,0,0,.52.53l.07,4.52a.41.41,0,0,0-.24.08l-4.21-6A.54.54,0,0,0,29.63,38Zm4.27,1.64a.51.51,0,0,0,.43-.27L38,41.24l-1.34,1.13-2.34,2,0,0a.58.58,0,0,0-.34-.14Zm.46-.31a1,1,0,0,0,0-.17l2.78.1,2.61.1a.58.58,0,0,0,.11.31L38.08,41.2ZM46,32.49l.17-6.22a.54.54,0,0,0,.52-.54.57.57,0,0,0,0-.18l1.59-.65a.83.83,0,0,0,.08.12.41.41,0,0,0,.21.15L46.11,32.5Zm2.2-7.82a.52.52,0,0,0,0,.18l-1,.41-.58.24s0-.06-.06-.1l3.2-2.74L49,24.19a.59.59,0,0,0-.23-.05A.53.53,0,0,0,48.21,24.67Zm1.69-2.1,6.4-5.49L49.37,24l-.27.27a.21.21,0,0,0-.08-.06Zm11,4.56h0a.27.27,0,0,0,.13,0l1,3.3,2.09,6.87-2.63.33-9.16-9.33L49.13,25a.5.5,0,0,0,.13-.26l11.08,1.76v.06A.53.53,0,0,0,60.87,27.13Zm3.25,10.2v0l-2.46.26L63,37.47Zm-2.56.37,2.59-.28,1.1,3.6-.76-.33Zm2.61-.37,4.57-.57,0,.12-4.58.49Zm4.56-.66v0l-3,.37-1.54.19L61.05,27.1l.14-.08,7.71,9.26A.56.56,0,0,0,68.73,36.67Zm-6-20.27-1.82,9.67h-.07l-.15,0-2.64-7.35-.73-2s0-.06,0-.1a.55.55,0,0,0-.16-.38l0,0h0l5.75-.61Zm-5.44.38,3.34,9.32a.52.52,0,0,0-.31.39L49.27,24.73v-.06a.53.53,0,0,0-.09-.3h0l0-.05L56.46,17a.52.52,0,0,0,.36.14A.53.53,0,0,0,57.32,16.78ZM50,22.44l3-5.57,3.34-.21a.6.6,0,0,0,.11.26Zm3-5.62h0l.4,0Zm0-.06-2.45.12L53,16.61Zm-.93.1.9-.05h0L50.07,17a.13.13,0,0,0,0-.06Zm-6.23,9.25-8.43,9.16-1.84-2.49a.53.53,0,0,0-.34-1h0L35,30.28l4.83-1.94L45.68,26Zm-10.7,5.73a.54.54,0,0,0-.29.15l-.88-.81,0,0a.53.53,0,0,0,.09-.3.52.52,0,0,0,0-.18l.89-.36ZM34,30.61a.54.54,0,0,0-.4-.3l.66-5.3.64,5.24Zm-.18.66.41.51-.67-.4h0A.46.46,0,0,0,33.82,31.27Zm0,6.51L18.14,34.11s0-.07,0-.1v0l15.42-1.44ZM18.14,33.93a.53.53,0,0,0-.21-.35l5.12-7.73a.5.5,0,0,0,.27.08.53.53,0,0,0,.45-.24l9.33,5.48a.57.57,0,0,0,.32.2l.09.05.05,1.07Zm-.15.46a.62.62,0,0,0,.12-.19l3.69,1.21,6.83,2.24a.32.32,0,0,0,0,.14.55.55,0,0,0,.11.33l-5.68,5-5.13-8.62Zm7.76,13.34,0,0-3.37-4,.67-.59Zm-.06.06,0,0-4.17-3.31.84-.74Zm3.38-9.47h.07a.51.51,0,0,0,.28-.08l.23.33,4,5.7a.53.53,0,0,0-.08.77L27.09,51.1a.55.55,0,0,0-.25-.13ZM29.43,49l4.16-3.9a.56.56,0,0,0,.37.15.54.54,0,0,0,.51-.39l10.79,2.5-18,4a.53.53,0,0,0-.11-.21Zm5.27-4.15,12.37,2s0,0,0,.06,0,.06,0,.09l-1.69.37ZM54,43.63h0l1.63,5-.24.92h-.19Zm1.75,6.76v0l.53.35v0Zm0-.08a.58.58,0,0,0,0-.18.52.52,0,0,0-.11-.32l.23-.18.32,1Zm-.09-1.63L56,47.35l.78,1.49-.86.69ZM56,47.2l-1.89-3.63a.51.51,0,0,0,.26-.4l2.66.15Zm-1.62-4.09h0a.53.53,0,0,0-.16-.38l3.86-4.28.2.09-.56,2.12L57,43.26ZM57.88,38a.53.53,0,0,0,.16.38h0l-3-1.32-8.62-3.86a.58.58,0,0,0,0-.19h0a.53.53,0,0,0-.34-.5l2.44-7.33.14,0a.48.48,0,0,0,.35-.14l6.68,6.81,5.63,5.73-2.46.31a.47.47,0,0,0-.14-.29.53.53,0,0,0-.38-.16A.54.54,0,0,0,57.88,38Zm.54.53a.54.54,0,0,0,.46-.26l3.44,1.82,2.45,1.3-6.39-2.86ZM64.7,41.3l-5.56-2.94,5.32,2.37.64.66-.06.09Zm-.11-.51.68.3,0,.16a.52.52,0,0,0-.18.1ZM61.23,27a.53.53,0,0,0,.18-.39.43.43,0,0,0,0-.11l1.75-.43,10.45-2.62a.53.53,0,0,0,.31.34L69.65,35.53l-.23.63a.41.41,0,0,0-.16,0,.59.59,0,0,0-.32.11ZM74,23.8l.15,0a.51.51,0,0,0,.32-.1L81.05,32a.54.54,0,0,0-.18.4.77.77,0,0,0,0,.15l-11.13,4a.93.93,0,0,0-.05-.1l0,0,0-.06a.39.39,0,0,0-.17-.11Zm6.26,11.91,1.09-.11a.27.27,0,0,0,0,.12.57.57,0,0,0,.08.13l-1.87,1.68Zm1.23.18s0,0,.08.06l-3.44,5.59,1.42-3.9Zm-4,7.59-.06.11v-.08Zm.09,0a.65.65,0,0,0,.15-.18l.54.27-.68.38a.63.63,0,0,0-.11-.12l0-.11Zm.11.48.64-.36,1.26.62H77.62a.54.54,0,0,0-.05-.21Zm0,.46,5.93,1.84a.59.59,0,0,0,0,.13.53.53,0,0,0,.32.49l-3.53,9L77.58,44.4A0,0,0,0,1,77.59,44.37ZM83.66,46l-.09.12-3.79-1.86,8.43,0a.85.85,0,0,0,0,.17l-2.77,1.24-1,.44a.51.51,0,0,0-.47-.3A.53.53,0,0,0,83.66,46Zm5.83-1.14-.32-.27a.52.52,0,0,0,.11-.32.51.51,0,0,0,0-.13l13-4-.64,5-2.39,7.3-.15,0a.53.53,0,0,0-.39.18Zm12.21.24,1.59-4.83-2.24,9.89ZM104,39.69h0a.57.57,0,0,0-.08-.29l3.24,1.89Zm2.87,1.51-2.9-1.32,0-.14,2.08,1.06Zm-3-1.92a.55.55,0,0,0-.14-.09h0l-.63-.37a.61.61,0,0,0,.06-.24.5.5,0,0,0-.06-.24l1.79-1,2.84,4a.69.69,0,0,0-.11.13Zm1-2,1.68-.93,1.28,4.83a.34.34,0,0,0-.12.06Zm1.71-1-3-11.42-.72-2.69a.58.58,0,0,0,.29-.22l14.37,8.32Zm-3.63-15.08,2.81-5,0-.08,1.61.85a.54.54,0,0,0,0,.22.54.54,0,0,0,.53.54.51.51,0,0,0,.38-.16.57.57,0,0,0,.16-.35l5.6,0a.68.68,0,0,0,0,.14l-10.9,4.14A.61.61,0,0,0,102.91,21.24Zm5-4.57L107.81,13a.55.55,0,0,0,.39-.2l.65.45L108,16.68Zm0,0h0l-.16-1.23-.27-2.23.14-.25,0,0,.19,0Zm-.44-3.55,0-.32a.44.44,0,0,0,.14.13Zm0,.17.42,3.38a.56.56,0,0,0-.35.23s0,0,0,0l-1.62-.85Zm-1.61,2.77L103.68,15l3.61-2.17,0,.4Zm-2.12-1.12-4.18-2.19a.46.46,0,0,0,0-.2l4.79,0h3a.85.85,0,0,0,0,.17v.06Zm-4.13-2.49,3.54,0H99.49Zm7.75,0-7.76,0a.48.48,0,0,0-.12-.22l7-6.66.86,6.89Zm-7.82.35L103.57,15l-9,5.43-3.82-4.86,7.47,1.18a.07.07,0,0,0,0,.05.54.54,0,0,0,.54.54h0a.54.54,0,0,0,0-1.07l0-.35L99,13.06h0A.56.56,0,0,0,99.42,12.8Zm-.71,3.44a.58.58,0,0,0-.31.11l-3.09-3.86,3.12,0a.52.52,0,0,0,.43.51Zm-.28-3.75-3.17-.05h.66l2.51,0Zm-.07,3.89a1.09,1.09,0,0,0-.13.17l-5-2.11-4.54-1.9a.4.4,0,0,0,0-.15l6.53.1Zm-3.47-3.95h0Zm-15.71-.56,4.73,2.44a.48.48,0,0,0,0,.17L79,14.3l-2.74-.1a.52.52,0,0,0-.11-.32L78.33,12a.53.53,0,0,0,.38.16h0A.55.55,0,0,0,79.18,11.87Zm-6-3.1-.13,0a.54.54,0,0,0-.54.54h0a.4.4,0,0,0,0,.15L69,10.73l4.41-6.65L74,6Zm-.63.72a.75.75,0,0,0,.07.12l-3,2.48-1.41,1.18-.9-.11,1.55-2.35Zm-5.29,3.66-1.89-.23-.2-.79,3.62-1.29Zm-2-.24L64,12.75s0,0,0,0a.4.4,0,0,0,0-.15l1.16-.41ZM64,12.81l1.35.16.43,1.74a.56.56,0,0,0-.17.09l-1.74-1.73A.58.58,0,0,0,64,12.81Zm1.54,2a.86.86,0,0,0-.1.16v0l-.3-.1-1.94-.63.2-1.07h.07a.52.52,0,0,0,.36-.14Zm-4.21-1.1,1.81.59-.22,1.17-5.78.61L55.8,12.37a.57.57,0,0,0,.3-.31Zm-4.25,2.37h0a.6.6,0,0,0-.27-.07h-.11l-.94-3.63ZM56,13.46l.68,2.62a.82.82,0,0,0-.2.12l-.17,0-.44-.3-1.77-1.16,1.29-2.4a.56.56,0,0,0,.23.05h.11ZM54,14.73l-1-.66,2.19-1.83a.48.48,0,0,0,.11.09Zm0,0-.95,1.78-3,.31a.51.51,0,0,0-.1-.24l3-2.52Zm-4.07,1.81-.07-.06L52,13.47l.92.61Zm-.11-.09a.54.54,0,0,0-.28-.08h-.13l-1.74-5.8L52,13.44ZM48,11.88l1.37,4.57h0L46,9.79a.8.8,0,0,0,.17-.15l1.44.95Zm1.28,4.61-.11.08A.55.55,0,0,0,49,17c0,.05,0,.09,0,.12L35.63,18a.49.49,0,0,0-.1-.26l9.81-8a.54.54,0,0,0,.4.18.71.71,0,0,0,.21,0Zm-5,8,1.4,1a.44.44,0,0,0,0,.45L35,30.23l-.66-5.44.77-6.25h0a.53.53,0,0,0,.38-.16l0-.05Zm-10.09.32-.68,5.51h0l-.07-9.77,0-2.21h0Zm-.75,5.51a.52.52,0,0,0-.41.24.51.51,0,0,0-.09.3.59.59,0,0,0,.05.23L23.8,25.64a.66.66,0,0,0,.06-.25A.55.55,0,0,0,23.7,25a.56.56,0,0,0-.38-.15.51.51,0,0,0-.44.24l-4.63-2.72,1.47-2.21,10.06-1.73,3.11-.54a.53.53,0,0,0,.5.42Zm-.37-13-.09.07L30.8,15.47l-5-4.41.19-.28a.6.6,0,0,0,.27.07.54.54,0,0,0,.54-.53h0a.55.55,0,0,0-.27-.47l2.21-4.34a.54.54,0,0,0,.28.08l.15,0L30.3,8.9l2.91,8.39Zm-11-9.78-1.24-.82h0v0Zm2,2.11L19.77,8.43l.51-1.51.14,0a.53.53,0,0,0,.3-.09.27.27,0,0,0,.08-.07h0Zm-.92-.2,1,.29L25.56,11l-6.71,6.64-2.7,2.68L16,19.66,19.75,8.48ZM16,19.56,13.22,7.05a.56.56,0,0,0,.37-.35L19.7,8.46Zm.11.75-.15.15a.48.48,0,0,0-.17-.1l.2-.6Zm-.06.84.29.17.52,2.38h0l-.75-1.8-.24-.57A.57.57,0,0,0,16,21.15Zm1,3.6h0a.52.52,0,0,0,.51-.41l.62.12,4.67.86a.2.2,0,0,0,0,.07.41.41,0,0,0,0,.16l-11.5,4.29a.19.19,0,0,0,0-.09.53.53,0,0,0-.45-.24h0l5.79-4.93A.49.49,0,0,0,17,24.75ZM11.12,30.5l0,0,.36.44h-.16Zm.44.46.18.21-.19.09L11.39,31Zm.07,0,.59,0h0l-.43.22Zm.6,0a.24.24,0,0,0,0,.08l-.38.18,0-.06Zm-.11.22-.19.11h0Zm.18-.05a.55.55,0,0,0,.44.24.58.58,0,0,0,.19,0l1,2.34L12,31.35Zm.68.18,4.16,2.44a.48.48,0,0,0-.06.24.54.54,0,0,0,.53.54.52.52,0,0,0,.25-.07h0L23,43.12l-.67.58L14,33.83Zm8.46,13.22.06.06,4.12,3.26h0a.51.51,0,0,0-.09.3h0l-8.81.51Zm3.47,3.72-.47,0-7.85.81a.51.51,0,0,0-.11-.25l.17-.14Zm-8.46.57a.39.39,0,0,0-.1-.08h.21Zm.13.51,5.09,1.09,4.53,1a.28.28,0,0,0,0,.09.48.48,0,0,0,.12.33l-6,5.33a.55.55,0,0,0-.39-.16.45.45,0,0,0-.2,0l-3.41-7.34A.55.55,0,0,0,16.58,49.35Zm3.58,9.92-.09-.77.13.76Zm.05.43-.05-.37.05,0,.06.35Zm.11-.08-.06-.33.91-.37,0,.07Zm1.08-1.39-.12.09a.51.51,0,0,0-.16.38.47.47,0,0,0,0,.17l-.9.37L20,58.05a.57.57,0,0,0,.36-.28Zm-.95-.67s0,0,0,0a.55.55,0,0,0-.12-.33l1.08-1,4.92-4.37a.54.54,0,0,0,.38.17.48.48,0,0,0,.29-.09L32,59Zm18.92,2.29L32,59l-5-7.05a.53.53,0,0,0,.21-.42s0-.06,0-.09l18.13-4,1.62.38ZM47,47.7l-1.53-.36L47.09,47a.52.52,0,0,0,.2.3Zm.13,0-.07,0,.25-.39h0Zm1.75.4-1.7-.39.19-.39a.65.65,0,0,0,.2,0,.53.53,0,0,0,.38-.16l.08-.12,3.22,1.57Zm-.77-1.05,5.17,2v.1l-1.78-.41Zm3.59,1.76,1.57.37,0,.39Zm1.42,2.85.16-2,1.46.71a.53.53,0,0,0,.46.27h.08l1.08.53.6,1.86-4.13,2.28ZM52.59,58h0a.54.54,0,0,0-.53.54v.06l-5.57.87a.46.46,0,0,0-.08-.19.54.54,0,0,0-.23-.19l6.64-3.66Zm.33.13a.55.55,0,0,0-.28-.12l.21-2.61L57,53.1l.17.53Zm4.3-4.54-.16-.51.13-.08.91-.5.07.09Zm1.07-1.83a.43.43,0,0,0-.16.14l-1.85-1.23-.35-1.08.86-.7Zm-1.48-3L56,47.27l.41-1.56.63-2.39,6.06.35Zm6.36-5.18-6.11-.35,1.24-4.71,6.7,3a.58.58,0,0,0,0,.19h0a.52.52,0,0,0,.11.32Zm8.52.49-8.44-.49,1.85-1.51a.53.53,0,0,0,.93-.36h0a.54.54,0,0,0-.18-.4L71.72,44A.32.32,0,0,0,71.69,44.11Zm.53-.48a.56.56,0,0,0-.38.15.71.71,0,0,0-.1.14L65.87,41.3,69,37.12a.55.55,0,0,0,.29.09.52.52,0,0,0,.51-.39l5.1-.54,5.28-.56-.69,1.88L72.6,43.79A.53.53,0,0,0,72.22,43.63Zm7.35,12-7-11,.06-.06a.51.51,0,0,0,.16-.38.28.28,0,0,0,0-.09l4-.93a.77.77,0,0,0,.07.16.56.56,0,0,0,.36.23v.12h0a.54.54,0,1,0,0,1.07h0a.54.54,0,0,0,.4-.18l2.22,11.31Zm.07,1.62a.54.54,0,0,0,.28.08h0v.14l-.54.09Zm.17-1.14.1.15h-.07ZM79.14,58l.25-.36.59-.11v.11ZM80,56.27l-.18-.3L77.56,44.62l0-.14h0l2.72,11.4-.17.42Zm0,1.06.11,0v.08h0v.06l-.1,0Zm0,.28v-.1h.1a.14.14,0,0,0,0,.06Zm0,.42,0-.37.12,0a.66.66,0,0,0,.12.17Zm0-1.72.14-.35.14.58,0,0A.51.51,0,0,0,80.14,56.31Zm.36.56h0s0-.05,0-.08a.71.71,0,0,0,0-.2h0Zm4.16-2.48a.48.48,0,0,0,0,.2l-4.23,1.93-.15-.65,3.55-9a.47.47,0,0,0,.17,0h0l1,7A.55.55,0,0,0,84.66,54.39Zm1-.21a.54.54,0,0,0-.49-.33h0l-1-7a.59.59,0,0,0,.28-.15.71.71,0,0,0,.1-.14l14.09,6.1a.58.58,0,0,0,0,.19v0L85.72,54.3Zm19.28,4-2.17.73a.52.52,0,0,0-.49-.34.53.53,0,0,0-.38.16.57.57,0,0,0-.13.21l-1.64-.45-14.44-4v0l17.54,1.91,4.9.53v0a.59.59,0,0,0,0,.14Zm3.2-1.32L96.43,55.58l-10.7-1.16v-.06L98.59,53a.54.54,0,0,0,.15.3l.06,0s0,0,0,0a.48.48,0,0,0,.29.1.52.52,0,0,0,.48-.31l8.6,3.65A.44.44,0,0,0,108.17,56.85Zm0-.15-4.31-1.83-4.28-1.82a.52.52,0,0,0,0-.18.53.53,0,0,0-.16-.38h0l1.15-1.38a.52.52,0,0,0,.32.11.54.54,0,0,0,.4-.18l6.91,5.59A.22.22,0,0,1,108.21,56.7Zm1,0v0a.54.54,0,0,0-.5-.33.53.53,0,0,0-.39.18L105,53.92,101.39,51a.54.54,0,0,0,.07-.13l10,3a.13.13,0,0,0,0,.06.54.54,0,0,0,.53.54.57.57,0,0,0,.36-.14l1.07,1.08Zm5-.53-.68-.7,0,0,.47-.15.09.2.27.61Zm4.81.27-3.92.09a.5.5,0,0,0,0-.12l1.88-.7Zm-2.14-.76-1.82.68a.34.34,0,0,0-.09-.14l.92-.88ZM115,55.52h0a.55.55,0,0,0,.47-.29l.37.14-.9.86a.57.57,0,0,0-.21-.13l.16-.6Zm-.17,0-.16.6h-.11l.25-.6Zm-.07,0-.26.63a.31.31,0,0,0-.13,0l-.36-.8.49-.16A.51.51,0,0,0,114.73,55.46Zm-.29-.58s0,.07,0,.1a.51.51,0,0,0,0,.13l-.49.16-.3-.66Zm-.53.4-.37.12-.12,0-1.09-1.11a1,1,0,0,0,.08-.11l1.18.36Zm-.37-.8-1.09-.37a.59.59,0,0,0,0-.14.54.54,0,0,0-.54-.54l-.12,0-2.26-7.71h0Zm-3.9-9.71a.59.59,0,0,0-.26-.07.55.55,0,0,0-.37.14L104,40l3.47,1.58a.65.65,0,0,0,0,.2h0a.54.54,0,1,0,1.07,0h0a.56.56,0,0,0-.15-.38l9.78-10.66.26.15Zm8.77-14-.25-.14.57-.62.06.16Zm.31.18-.27-.15.36-.56.16.5A.57.57,0,0,0,118.72,31Zm.59-1.19-.08.75,0,.2h0a.4.4,0,0,0-.15,0l-.18-.55.3-.48A.58.58,0,0,0,119.31,29.79Zm-.21-.08-.28.43,0-.15.29-.31Zm-.15-.16.07.09-.27.3-.07-.24Zm0-.48a.45.45,0,0,0,0,.2.59.59,0,0,0,0,.23l-.26.15-.06-.17-.21-.64Zm-.3.6-1.1.61L103.1,21.94h0l14.82,6.69.41.18Zm-4.08-12,.14,0,3.63,11-15.18-6.85a.41.41,0,0,0,0-.19h0a.47.47,0,0,0,0-.17l4.31-1.63,6.6-2.51A.53.53,0,0,0,114.53,17.71Zm-.45-.82a.25.25,0,0,0,0,.07.41.41,0,0,0,0,.19l-5.6,0s0,0,0,0l4.8-.86Zm-2.59-1.8,1.64,1.14-4.75.85a.54.54,0,0,0-.36-.39l.88-3.39Zm-2.62-1.88-.64-.45A.53.53,0,0,0,108,12a.46.46,0,0,0-.21-.05.54.54,0,0,0-.49.33l-.84-6.79,3.44-3.25,1.43,1.53Zm2.45-9.51-1.41-1.51.17-.15.51-.49,1.07.85Zm6.93,3.94.86.68-1.74,1.13a.8.8,0,0,0-.13-.13Zm0,0-1,1.69a.53.53,0,0,0-.59.07l-5.24-5.61.34-1.31ZM112,.29h0a.61.61,0,0,0,.14.07l-.51,2-1-.83L112,.24Zm-.17-.2a.44.44,0,0,0,.08.11l-1.35,1.28-.71-.56Zm-2,.86.72.57-.67.63-.83-.88Zm-.83.34.84.9-3.41,3.22-.35-2.88ZM99.24,5.92a.55.55,0,0,0,.53-.54.58.58,0,0,0,0-.18L106,2.55l.36,2.91-5.06,4.79-2,1.89A.51.51,0,0,0,99,12l.06-1.4Zm-.06,0L98.91,12a.56.56,0,0,0-.47.4l-3.23,0L87.63,2.93,98.71,5.3a.19.19,0,0,0,0,.08A.53.53,0,0,0,99.18,5.91ZM88.55,1.44l4.6,1.71,5.57,2.07v0L92.75,4l-5.17-1.1-.65-.82ZM87,.84l1.52.57L86.89,2l-.42-.52Zm-1-.37,1,.35-.46.62L85.81.66A.8.8,0,0,0,85.94.47Zm-.18.22.64.8L86,2A.55.55,0,0,0,85.7,2h0L85.62.77Zm-.2.09,0,.61-.06-.6S85.55.78,85.56.78Zm-.11,0h0l0,.22.1,1-.13,0L85,1,85.2.73A.54.54,0,0,0,85.45.79Zm-.4-.18a.41.41,0,0,0,.1.09L85,1,84.87.75ZM83.31,2,84.83.79,85,1,82.58,5,79,11.12a.61.61,0,0,0-.25-.06h0a.51.51,0,0,0-.4.19L75.4,9l.06-.1a.46.46,0,0,0,0-.21.57.57,0,0,0-.1-.31ZM75.37,9l2.91,2.29a.56.56,0,0,0,0,.08L77.35,11,73.58,9.46a.47.47,0,0,0,0-.17h0a.77.77,0,0,0,0-.15l.69-.23.19-.06a.53.53,0,0,0,.5.34A.51.51,0,0,0,75.37,9ZM75.69.92,75.59,2,75,8.12h0l-.15,0L74.44,7l-.35-1,.7-2.29L75.64.91Zm-.13,0h0L74.06,5.94,73.4,4,75.5.85Zm-.31-.4a.54.54,0,0,0,.2.33l-.16.25L73.38,4,72.32.88ZM72,.08l3.2.29V.44L72.3.83Zm.22.81L73.34,4l-4.47,6.75-3.68,1.32L62.72,2.17Zm-9.79.49.19.74-2.43.33a.29.29,0,0,0,0-.09ZM60.24,2.54v0l2.43-.33,2.47,9.92L64,12.51a.52.52,0,0,0-.2-.24l-.07,0h0a.46.46,0,0,0-.21,0,.52.52,0,0,0-.52.45l-6.83-.73v0h0a.54.54,0,0,0-1.07,0h0a.52.52,0,0,0,.11.33L53,14,52,13.42l7.3-10.48a.6.6,0,0,0,.37.14h0A.54.54,0,0,0,60.24,2.54Zm.49-1.6L60,2.08h0Zm-.82.51L60.33,1,59.89,2l-.07,0Zm-.06.08L59.77,2h-.06a.53.53,0,0,0-.49.31.1.1,0,0,0,0,0ZM45.06.36,58.28,2.58s0,0,0,.07a.78.78,0,0,0,0,.21.54.54,0,0,0,1,0l0,0L52,13.39l-4.33-2.84L46.34,6.16,44.72.75A.54.54,0,0,0,45.06.36Zm-.39.4,2.92,9.75L46.2,9.59a.6.6,0,0,0,.07-.27h0a.53.53,0,0,0-.53-.53h-.05l-1-8ZM39.23,3.64a.54.54,0,0,0-.06-.25L43.58.83l.51-.3a.54.54,0,0,0,.45.25h.05l1,8a.51.51,0,0,0-.3.17L39.13,4A.55.55,0,0,0,39.23,3.64Zm-9.7,1.42V5l8.64-1.27a.55.55,0,0,0,.53.44.54.54,0,0,0,.21,0A.62.62,0,0,0,39.1,4l6.2,5a.46.46,0,0,0-.07.16L36.16,6.86l-6.64-1.7A.34.34,0,0,0,29.53,5.06Zm0,.21,0-.06,6.28,1.61,9.42,2.4s0,.07,0,.1h0a.52.52,0,0,0,.11.32l-9.81,8a.54.54,0,0,0-.4-.18.65.65,0,0,0-.2,0l-5.65-12A.55.55,0,0,0,29.49,5.27Zm5.36,12.27-.09.06a.5.5,0,0,0-.18.31l-.64-.08v0a.53.53,0,0,0-.53-.53l-.15,0L29.2,5.55h0Zm-5-14.47-.75,1.47-.15,0a.52.52,0,0,0-.49.33.46.46,0,0,0-.05.21s0,0,0,.05L20.94,6.3a.14.14,0,0,0,0-.07L30.2,2.49ZM31.18.56l-.95,1.86L20.9,6.18v0L31,.39A.49.49,0,0,0,31.18.56Zm-16,2.15a.13.13,0,0,0,0-.06L30.92.21a.5.5,0,0,0,0,.13L20.87,6.12a.54.54,0,0,0-.45-.25.53.53,0,0,0-.3.09.61.61,0,0,0-.17.19L15.11,3A.6.6,0,0,0,15.18,2.71Zm-.53.54A.51.51,0,0,0,15,3.09L15.08,3,19.92,6.2a.71.71,0,0,0,0,.21.54.54,0,0,0,.34.49l-.5,1.51-5.8-1.67-.32-.09a.5.5,0,0,0,0-.12.52.52,0,0,0-.31-.48l.93-2.28.23-.56A.48.48,0,0,0,14.65,3.25Zm-.72-3a.53.53,0,0,0,.53.5h0l0,.46.07,1a.51.51,0,0,0-.31.15.5.5,0,0,0-.13.22L5.74.41Zm-1.29,6L3.19.47,5.54.41,14.12,2.6a.41.41,0,0,0,0,.11.53.53,0,0,0,.31.48L13.26,6a.53.53,0,0,0-.18,0A.55.55,0,0,0,12.64,6.23Zm-2.41,6.83,2.66-6a.65.65,0,0,0,.19,0h.09l1.54,7L16,19.66l-.23.68-.14,0a.54.54,0,0,0-.54.54.51.51,0,0,0,.13.34.53.53,0,0,0,.41.19.57.57,0,0,0,.18,0l1,2.38a.53.53,0,0,0-.29.41l-7.32-.59-2.94-.24h0a.46.46,0,0,0,0-.21.55.55,0,0,0-.25-.27ZM5.66,23.84h0a.54.54,0,0,0,.53-.46l10.25.82v0a.52.52,0,0,0,.11.32l-5.84,5a.53.53,0,0,0-.39.33L8.89,31.09,5,31.35Zm-1,10.39L5,31.41l3.87-.27L5.19,34.23,5,34.4A.53.53,0,0,0,4.69,34.23Zm.36.23L9.49,31.1l.68-.05L11.33,31l.17.31-.29.15L5.07,34.5Zm.09.25a.54.54,0,0,0,0-.15l5.62-2.71Zm2.53-1.45,3.86-1.93,0,.06Zm3.94-1.9,0-.06.19-.09.05.05Zm0,.08.22-.11h0l-.21.13Zm0,.08.22-.14L14,33.86l2.78,6.53.09.21h0Zm5.2,10.06a.45.45,0,0,0,.2,0,.54.54,0,0,0,.41-.18l3.89,3.08-4.78,4.17-.37,0a.57.57,0,0,0-.18,0h0a.48.48,0,0,0-.24.06L11.08,49l5.72-7.48Zm-5.75,5.69,5.6-5.78h0L11,49l-1.19.07a.54.54,0,0,0-.13-.31Zm-1.32,1.9h1.05l-.78,1-.47-.65A.55.55,0,0,0,9.83,49.17Zm-.24.41.48.67-.68.88-.05-1.46A.54.54,0,0,0,9.59,49.58Zm-1.9,4.29h.12v0Zm.84.83-.31.93-.14-.69.3-.33A.46.46,0,0,0,8.53,54.7Zm-.19-.12-.27.3,0-.18.26-.18Zm.8-4.93.15,0,.05,1.53L8,52.9l-.09,0ZM7.87,53.86a.53.53,0,0,0,.24-.14h0l.18.16a.8.8,0,0,0-.08.16l-.34-.1Zm0,.13.31.09a.49.49,0,0,0,0,.12.64.64,0,0,0,.07.28L8,54.64Z" style="mix-blend-mode:color-dodge;fill:url(#radial-gradient-8)"/><path d="M82,22a2.09,2.09,0,1,1-2.09-2.1A2.1,2.1,0,0,1,82,22Z" style="opacity:0.001343;mix-blend-mode:color-dodge;fill:url(#radial-gradient-9)"/><path d="M84,14.07A2.09,2.09,0,1,1,81.87,12,2.09,2.09,0,0,1,84,14.07Z" style="opacity:0.799554;mix-blend-mode:color-dodge;fill:url(#radial-gradient-10)"/><path d="M120,54.48a2.1,2.1,0,1,0,0,2.88Z" style="opacity:0.63744;mix-blend-mode:color-dodge;fill:url(#radial-gradient-11)"/><path d="M0,5.87v4.18A2.09,2.09,0,0,0,2,8,2.09,2.09,0,0,0,0,5.87Z" style="opacity:0.397839;mix-blend-mode:color-dodge;fill:url(#radial-gradient-12)"/><path d="M54.65,54.61a2.09,2.09,0,1,1-2.09-2.1A2.1,2.1,0,0,1,54.65,54.61Z" style="opacity:0.318857;mix-blend-mode:color-dodge;fill:url(#radial-gradient-13)"/><path d="M42.14,55.49a2.09,2.09,0,1,1-2.08-2.1A2.09,2.09,0,0,1,42.14,55.49Z" style="opacity:0.529893;mix-blend-mode:color-dodge;fill:url(#radial-gradient-14)"/><path d="M10.34,15.72a2.09,2.09,0,1,1-2.09-2.1A2.1,2.1,0,0,1,10.34,15.72Z" style="opacity:0.6657000000000001;mix-blend-mode:color-dodge;fill:url(#radial-gradient-15)"/><path d="M87.34,18.13A2.09,2.09,0,1,1,85.25,16,2.09,2.09,0,0,1,87.34,18.13Z" style="opacity:0.5305949999999999;mix-blend-mode:color-dodge;fill:url(#radial-gradient-16)"/><path d="M54.28,46.05A2.09,2.09,0,1,1,52.2,44,2.09,2.09,0,0,1,54.28,46.05Z" style="opacity:0.040254;mix-blend-mode:color-dodge;fill:url(#radial-gradient-17)"/><path d="M77.85,33.09A2.09,2.09,0,1,1,75.77,31,2.09,2.09,0,0,1,77.85,33.09Z" style="opacity:0.8426159999999999;mix-blend-mode:color-dodge;fill:url(#radial-gradient-18)"/><path d="M50.89,42.92a2.09,2.09,0,1,1-2.09-2.1A2.1,2.1,0,0,1,50.89,42.92Z" style="opacity:0.6358229999999999;mix-blend-mode:color-dodge;fill:url(#radial-gradient-19)"/><path d="M18.29,23a2.09,2.09,0,1,1-2.09-2.1A2.09,2.09,0,0,1,18.29,23Z" style="opacity:0.13306099999999998;mix-blend-mode:color-dodge;fill:url(#radial-gradient-20)"/><path d="M59.43,22a2.09,2.09,0,1,1-2.09-2.1A2.1,2.1,0,0,1,59.43,22Z" style="opacity:0.558306;mix-blend-mode:color-dodge;fill:url(#radial-gradient-21)"/><path d="M0,24.48V27a2.12,2.12,0,0,0,.42-1.26A2.12,2.12,0,0,0,0,24.48Z" style="opacity:0.9548629999999999;mix-blend-mode:color-dodge;fill:url(#radial-gradient-22)"/><path d="M75.93,53.51a2.09,2.09,0,1,1-2.09-2.1A2.09,2.09,0,0,1,75.93,53.51Z" style="opacity:0.7572559999999999;mix-blend-mode:color-dodge;fill:url(#radial-gradient-23)"/><path d="M50.05,51.64A2.09,2.09,0,1,1,48,49.54,2.1,2.1,0,0,1,50.05,51.64Z" style="opacity:0.582781;mix-blend-mode:color-dodge;fill:url(#radial-gradient-24)"/><path d="M94.16,13.86a2.09,2.09,0,1,1-2.09-2.09A2.1,2.1,0,0,1,94.16,13.86Z" style="opacity:0.365703;mix-blend-mode:color-dodge;fill:url(#radial-gradient-25)"/><path d="M52.76,28.51a2.09,2.09,0,1,1-2.09-2.1A2.1,2.1,0,0,1,52.76,28.51Z" style="opacity:0.24546;mix-blend-mode:color-dodge;fill:url(#radial-gradient-26)"/><path d="M33.34,53.9a2.09,2.09,0,1,1-2.09-2.09A2.09,2.09,0,0,1,33.34,53.9Z" style="opacity:0.859371;mix-blend-mode:color-dodge;fill:url(#radial-gradient-27)"/><path d="M87.75,29.84a2.09,2.09,0,1,1-2.09-2.09A2.1,2.1,0,0,1,87.75,29.84Z" style="opacity:0.257088;mix-blend-mode:color-dodge;fill:url(#radial-gradient-28)"/><path d="M15.7,41.06A2.09,2.09,0,1,1,13.61,39,2.09,2.09,0,0,1,15.7,41.06Z" style="opacity:0.31757599999999997;mix-blend-mode:color-dodge;fill:url(#radial-gradient-29)"/><path d="M21,30a2.09,2.09,0,1,1-2.09-2.1A2.1,2.1,0,0,1,21,30Z" style="opacity:0.8102969999999999;mix-blend-mode:color-dodge;fill:url(#radial-gradient-30)"/><path d="M38.3,30.79a2.09,2.09,0,1,1-2.09-2.1A2.09,2.09,0,0,1,38.3,30.79Z" style="opacity:0.676901;mix-blend-mode:color-dodge;fill:url(#radial-gradient-31)"/><path d="M27.72,12.44a2.09,2.09,0,1,1-2.09-2.1A2.09,2.09,0,0,1,27.72,12.44Z" style="opacity:0.24271399999999999;mix-blend-mode:color-dodge;fill:url(#radial-gradient-32)"/><path d="M41.21,13.71a2.09,2.09,0,1,1-2.09-2.1A2.1,2.1,0,0,1,41.21,13.71Z" style="opacity:0.08398699999999999;mix-blend-mode:color-dodge;fill:url(#radial-gradient-33)"/><path d="M113.2,19.61a2.09,2.09,0,1,1-2.09-2.09A2.09,2.09,0,0,1,113.2,19.61Z" style="opacity:0.8155159999999999;mix-blend-mode:color-dodge;fill:url(#radial-gradient-34)"/><path d="M116.1,23A2.09,2.09,0,1,1,114,20.9,2.09,2.09,0,0,1,116.1,23Z" style="opacity:0.156865;mix-blend-mode:color-dodge;fill:url(#radial-gradient-35)"/><path d="M52.62,54.14a2.09,2.09,0,1,1-2.09-2.09A2.1,2.1,0,0,1,52.62,54.14Z" style="opacity:0.813044;mix-blend-mode:color-dodge;fill:url(#radial-gradient-36)"/><path d="M12.66,32.73a2.09,2.09,0,1,1-2.09-2.1A2.09,2.09,0,0,1,12.66,32.73Z" style="opacity:0.022400999999999997;mix-blend-mode:color-dodge;fill:url(#radial-gradient-37)"/><path d="M89.67,13.14a2.09,2.09,0,1,1-2.09-2.09A2.1,2.1,0,0,1,89.67,13.14Z" style="opacity:0.466201;mix-blend-mode:color-dodge;fill:url(#radial-gradient-38)"/><path d="M92.59,55.92a2.09,2.09,0,1,1-2.09-2.1A2.09,2.09,0,0,1,92.59,55.92Z" style="opacity:0.19272399999999998;mix-blend-mode:color-dodge;fill:url(#radial-gradient-39)"/><path d="M.93,29.64a2.1,2.1,0,0,0-.93.23v3.75a2.09,2.09,0,0,0,.93.22,2.1,2.1,0,0,0,0-4.2Z" style="opacity:0.563738;mix-blend-mode:color-dodge;fill:url(#radial-gradient-40)"/><path d="M4.32,16.93a2.09,2.09,0,1,1-2.09-2.09A2.1,2.1,0,0,1,4.32,16.93Z" style="opacity:0.309061;mix-blend-mode:color-dodge;fill:url(#radial-gradient-41)"/><path d="M25.25,18.64a2.09,2.09,0,1,1-2.09-2.1A2.09,2.09,0,0,1,25.25,18.64Z" style="opacity:0.345012;mix-blend-mode:color-dodge;fill:url(#radial-gradient-42)"/><path d="M29.51,12.62a2.09,2.09,0,1,1-2.09-2.1A2.09,2.09,0,0,1,29.51,12.62Z" style="opacity:0.078127;mix-blend-mode:color-dodge;fill:url(#radial-gradient-43)"/><path d="M89.43,41.42a2.09,2.09,0,1,1-2.08-2.09A2.09,2.09,0,0,1,89.43,41.42Z" style="opacity:0.705893;mix-blend-mode:color-dodge;fill:url(#radial-gradient-44)"/><path d="M64,25.82a2.09,2.09,0,1,1-2.09-2.1A2.1,2.1,0,0,1,64,25.82Z" style="opacity:0.087741;mix-blend-mode:color-dodge;fill:url(#radial-gradient-45)"/><path d="M113.23,11.78a2.09,2.09,0,1,1-2.09-2.09A2.1,2.1,0,0,1,113.23,11.78Z" style="opacity:0.744682;mix-blend-mode:color-dodge;fill:url(#radial-gradient-46)"/><path d="M0,28.61v3.25a2.1,2.1,0,0,0,.76-1.63A2.09,2.09,0,0,0,0,28.61Z" style="opacity:0.8822289999999999;mix-blend-mode:color-dodge;fill:url(#radial-gradient-47)"/><path d="M12.66,19.93a2.09,2.09,0,1,1-2.09-2.1A2.09,2.09,0,0,1,12.66,19.93Z" style="opacity:0.708518;mix-blend-mode:color-dodge;fill:url(#radial-gradient-48)"/><path d="M5,24.74a2.09,2.09,0,1,1-2.09-2.1A2.1,2.1,0,0,1,5,24.74Z" style="opacity:0.869594;mix-blend-mode:color-dodge;fill:url(#radial-gradient-49)"/><path d="M117.69,36.12A2.09,2.09,0,1,1,115.6,34,2.1,2.1,0,0,1,117.69,36.12Z" style="opacity:0.602649;mix-blend-mode:color-dodge;fill:url(#radial-gradient-50)"/><path d="M92,46.4a2.09,2.09,0,1,1-2.09-2.1A2.1,2.1,0,0,1,92,46.4Z" style="opacity:0.17288699999999999;mix-blend-mode:color-dodge;fill:url(#radial-gradient-51)"/><path d="M47.38,38.23a2.09,2.09,0,1,1-2.09-2.1A2.1,2.1,0,0,1,47.38,38.23Z" style="opacity:0.582568;mix-blend-mode:color-dodge;fill:url(#radial-gradient-52)"/><path d="M68,38.94a2.09,2.09,0,1,1-2.08-2.1A2.09,2.09,0,0,1,68,38.94Z" style="opacity:0.662801;mix-blend-mode:color-dodge;fill:url(#radial-gradient-53)"/><path d="M103.09,56.5A2.09,2.09,0,1,1,101,54.41,2.09,2.09,0,0,1,103.09,56.5Z" style="opacity:0.08935799999999999;mix-blend-mode:color-dodge;fill:url(#radial-gradient-54)"/><path d="M120,47.38a2.15,2.15,0,0,0-1-.28,2.1,2.1,0,0,0,0,4.2,2.06,2.06,0,0,0,1-.29Z" style="opacity:0.273598;mix-blend-mode:color-dodge;fill:url(#radial-gradient-55)"/><path d="M63.09,40.62a.95.95,0,1,1-1-.95A1,1,0,0,1,63.09,40.62Z" style="mix-blend-mode:color-dodge;fill:url(#radial-gradient-56)"/><path d="M27.89,31.17a1,1,0,1,1-.95-1A.95.95,0,0,1,27.89,31.17Z" style="mix-blend-mode:color-dodge;fill:url(#radial-gradient-57)"/><path d="M23.38,12.45a1,1,0,1,1-.95-1A1,1,0,0,1,23.38,12.45Z" style="mix-blend-mode:color-dodge;fill:url(#radial-gradient-58)"/><path d="M76.49,36.41a1,1,0,1,1-.95-.95A.94.94,0,0,1,76.49,36.41Z" style="mix-blend-mode:color-dodge;fill:url(#radial-gradient-59)"/><path d="M38.05,54.22a1,1,0,1,1-.95-.95A1,1,0,0,1,38.05,54.22Z" style="mix-blend-mode:color-dodge;fill:url(#radial-gradient-60)"/><path d="M82.5,47a1,1,0,1,1-1-1A1,1,0,0,1,82.5,47Z" style="mix-blend-mode:color-dodge;fill:url(#radial-gradient-61)"/><path d="M47.82,46.6a.95.95,0,1,1-.94-1A.94.94,0,0,1,47.82,46.6Z" style="mix-blend-mode:color-dodge;fill:url(#radial-gradient-62)"/><path d="M99.79,49.44a.95.95,0,1,1-.94-.95A.94.94,0,0,1,99.79,49.44Z" style="mix-blend-mode:color-dodge;fill:url(#radial-gradient-63)"/><path d="M84.19,7.83a.95.95,0,1,1-1-1A.95.95,0,0,1,84.19,7.83Z" style="mix-blend-mode:color-dodge;fill:url(#radial-gradient-64)"/><circle cx="100.74" cy="33.93" r="0.95" style="mix-blend-mode:color-dodge;fill:url(#radial-gradient-65)"/><path d="M29.75,9.59a1,1,0,1,1-.95-1A1,1,0,0,1,29.75,9.59Z" style="mix-blend-mode:color-dodge;fill:url(#radial-gradient-66)"/><path d="M87.56,36.19a1,1,0,1,1-1-.95A1,1,0,0,1,87.56,36.19Z" style="mix-blend-mode:color-dodge;fill:url(#radial-gradient-67)"/><path d="M92.21,1.66a.95.95,0,1,1-.95-1A.95.95,0,0,1,92.21,1.66Z" style="mix-blend-mode:color-dodge;fill:url(#radial-gradient-68)"/><ellipse cx="38.43" cy="22.21" rx="0.95" ry="0.95" style="mix-blend-mode:color-dodge;fill:url(#radial-gradient-69)"/><path d="M66.38,27.1a.95.95,0,1,1-.95-1A1,1,0,0,1,66.38,27.1Z" style="mix-blend-mode:color-dodge;fill:url(#radial-gradient-70)"/><path d="M23.27,8.43a1,1,0,1,1-.95-1A1,1,0,0,1,23.27,8.43Z" style="mix-blend-mode:color-dodge;fill:url(#radial-gradient-71)"/><path d="M31.15,1.36a.95.95,0,1,1-.94-1A.95.95,0,0,1,31.15,1.36Z" style="mix-blend-mode:color-dodge;fill:url(#radial-gradient-72)"/><path d="M37.72,53.51a1,1,0,1,1-.95-1A1,1,0,0,1,37.72,53.51Z" style="mix-blend-mode:color-dodge;fill:url(#radial-gradient-73)"/><path d="M80.5,8.93a1,1,0,1,1-1-.95A1,1,0,0,1,80.5,8.93Z" style="mix-blend-mode:color-dodge;fill:url(#radial-gradient-74)"/><path d="M41.21,12.72a.95.95,0,1,1-1-1A.95.95,0,0,1,41.21,12.72Z" style="mix-blend-mode:color-dodge;fill:url(#radial-gradient-75)"/><path d="M106.75,9.35a.95.95,0,1,1-.94-1A.95.95,0,0,1,106.75,9.35Z" style="mix-blend-mode:color-dodge;fill:url(#radial-gradient-76)"/><path d="M101,56.5a1,1,0,1,1-1-1A1,1,0,0,1,101,56.5Z" style="mix-blend-mode:color-dodge;fill:url(#radial-gradient-77)"/><path d="M61.89,55.18a1,1,0,1,1-1-1A.94.94,0,0,1,61.89,55.18Z" style="mix-blend-mode:color-dodge;fill:url(#radial-gradient-78)"/><path d="M54.86,8.1a1,1,0,1,1-1-.95A1,1,0,0,1,54.86,8.1Z" style="mix-blend-mode:color-dodge;fill:url(#radial-gradient-79)"/><path d="M37.63,10a1,1,0,1,1-1-1A1,1,0,0,1,37.63,10Z" style="mix-blend-mode:color-dodge;fill:url(#radial-gradient-80)"/><path d="M29.91,47.64a.95.95,0,1,1-.95-1A1,1,0,0,1,29.91,47.64Z" style="mix-blend-mode:color-dodge;fill:url(#radial-gradient-81)"/><path d="M86.39,2.27a1,1,0,1,1-1-.95A1,1,0,0,1,86.39,2.27Z" style="mix-blend-mode:color-dodge;fill:url(#radial-gradient-82)"/><path d="M26.84,22.51a.95.95,0,1,1-.95-1A.94.94,0,0,1,26.84,22.51Z" style="mix-blend-mode:color-dodge;fill:url(#radial-gradient-83)"/><path d="M67.17,50.74a1,1,0,1,1-1-1A1,1,0,0,1,67.17,50.74Z" style="mix-blend-mode:color-dodge;fill:url(#radial-gradient-84)"/><path d="M103.26,25a1,1,0,1,1-1-1A1,1,0,0,1,103.26,25Z" style="mix-blend-mode:color-dodge;fill:url(#radial-gradient-85)"/><path d="M43.68,51.93a.95.95,0,1,1-1-1A1,1,0,0,1,43.68,51.93Z" style="mix-blend-mode:color-dodge;fill:url(#radial-gradient-86)"/><path d="M60.76,48.57a.95.95,0,1,1-.95-1A.95.95,0,0,1,60.76,48.57Z" style="mix-blend-mode:color-dodge;fill:url(#radial-gradient-87)"/><path d="M23.22,46.54a1,1,0,1,1-.95-1A.95.95,0,0,1,23.22,46.54Z" style="mix-blend-mode:color-dodge;fill:url(#radial-gradient-88)"/><path d="M95.74,11.93a1,1,0,1,1-.95-.95A1,1,0,0,1,95.74,11.93Z" style="mix-blend-mode:color-dodge;fill:url(#radial-gradient-89)"/><path d="M38,26.62a1,1,0,1,1-1-.95A1,1,0,0,1,38,26.62Z" style="mix-blend-mode:color-dodge;fill:url(#radial-gradient-90)"/><path d="M92.25,48.77a1,1,0,1,1-1-1A.94.94,0,0,1,92.25,48.77Z" style="mix-blend-mode:color-dodge;fill:url(#radial-gradient-91)"/><path d="M52.57,25.06a1,1,0,1,1-1-1A1,1,0,0,1,52.57,25.06Z" style="mix-blend-mode:color-dodge;fill:url(#radial-gradient-92)"/><path d="M98.5,22.16a.95.95,0,1,1-.94-.95A.95.95,0,0,1,98.5,22.16Z" style="mix-blend-mode:color-dodge;fill:url(#radial-gradient-93)"/><circle cx="98.73" cy="55.66" r="0.95" style="mix-blend-mode:color-dodge;fill:url(#radial-gradient-94)"/><path d="M43.75,18.17a.95.95,0,1,1-1-1A.95.95,0,0,1,43.75,18.17Z" style="mix-blend-mode:color-dodge;fill:url(#radial-gradient-95)"/><path d="M24.19,0h-.64a.94.94,0,0,0-.63.9A1,1,0,1,0,24.19,0Z" style="mix-blend-mode:color-dodge;fill:url(#radial-gradient-96)"/><path d="M44.41,30.16a1,1,0,1,1-.95-.95A.95.95,0,0,1,44.41,30.16Z" style="mix-blend-mode:color-dodge;fill:url(#radial-gradient-97)"/><path d="M80.08,54.6a.95.95,0,1,1-1-1A.94.94,0,0,1,80.08,54.6Z" style="mix-blend-mode:color-dodge;fill:url(#radial-gradient-98)"/></g></g></svg>